<?xml version="1.0" standalone="no"?>
<!DOCTYPE svg PUBLIC "-//W3C//DTD SVG 20010904//EN"
 "http://www.w3.org/TR/2001/REC-SVG-20010904/DTD/svg10.dtd">
<svg version="1.0" xmlns="http://www.w3.org/2000/svg"
 width="412.000000pt" height="412.000000pt" viewBox="0 0 412.000000 412.000000"
 preserveAspectRatio="xMidYMid meet">
<metadata>
Created by potrace 1.14, written by Peter Selinger 2001-2017
</metadata>
<g transform="translate(0.000000,412.000000) scale(0.100000,-0.100000)"
fill="#000000" stroke="none">
<path d="M1771 4019 c-854 -129 -1516 -779 -1676 -1646 -22 -118 -31 -422 -16
-549 55 -464 249 -869 574 -1196 447 -449 1080 -660 1705 -568 433 63 819 257
1127 566 480 480 681 1156 544 1828 -150 738 -741 1349 -1479 1529 -239 59
-538 73 -779 36z m464 -39 c772 -72 1424 -579 1674 -1304 353 -1023 -198
-2140 -1222 -2481 -503 -167 -1025 -128 -1497 111 -378 192 -662 477 -854 854
-138 272 -203 528 -211 835 -6 234 24 434 100 662 161 485 505 883 965 1117
331 168 690 239 1045 206z"/>
<path d="M1880 3934 c-14 -2 -59 -9 -100 -15 -686 -98 -1289 -605 -1511 -1270
-77 -231 -104 -420 -96 -673 5 -172 18 -263 56 -413 116 -453 407 -857 806
-1118 481 -315 1091 -391 1644 -206 696 233 1195 853 1282 1595 14 122 6 410
-14 521 -77 409 -252 747 -533 1029 -282 282 -616 455 -1029 533 -76 14 -448
27 -505 17z m534 -53 c402 -82 739 -266 1013 -554 254 -267 413 -583 490 -972
25 -129 25 -503 0 -630 -81 -409 -245 -723 -521 -1001 -274 -275 -577 -439
-965 -521 -115 -25 -146 -27 -351 -27 -178 -1 -246 3 -325 18 -299 55 -566
170 -805 346 -47 35 -139 117 -206 184 -276 278 -440 593 -521 1001 -14 71
-18 139 -17 320 0 211 2 241 27 356 78 370 238 674 492 938 292 303 659 490
1088 556 134 21 469 13 601 -14z"/>
<path d="M1862 3813 l-24 -5 7 -136 c4 -75 9 -140 12 -144 2 -5 18 -8 35 -8
l30 0 -4 55 c-5 54 -4 55 21 55 54 0 101 20 116 50 22 42 19 74 -11 109 -24
29 -30 31 -92 30 -37 -1 -78 -4 -90 -6z m135 -69 c10 -27 -11 -49 -51 -52 -35
-3 -36 -2 -36 32 0 35 1 36 40 36 28 0 43 -5 47 -16z"/>
<path d="M2155 3788 c-9 -57 -25 -201 -25 -230 0 -24 4 -28 29 -28 24 0 29 5
35 31 3 17 6 45 6 62 0 29 1 29 38 23 20 -3 45 -6 54 -6 15 0 17 -8 11 -65
l-6 -65 32 0 c17 0 31 1 31 3 0 1 7 56 15 122 21 166 21 165 -14 165 -31 0
-41 -18 -41 -77 0 -31 0 -31 -42 -26 -68 8 -67 6 -61 67 l6 56 -31 0 c-27 0
-32 -4 -37 -32z"/>
<path d="M1610 3769 c-31 -13 -37 -22 -45 -75 -3 -24 -10 -46 -14 -49 -5 -2
-28 12 -52 34 -40 35 -46 37 -76 28 -18 -6 -33 -13 -33 -16 1 -3 34 -33 74
-66 66 -53 76 -65 92 -117 20 -63 20 -63 58 -48 l25 9 -19 57 c-20 56 -20 57
1 138 11 44 22 89 25 99 6 19 0 20 -36 6z"/>
<path d="M2512 3720 c-42 -26 -71 -90 -72 -153 0 -42 5 -54 33 -82 87 -87 214
-54 247 63 15 56 12 86 -13 123 -43 66 -131 88 -195 49z m128 -60 c38 -38 15
-141 -36 -161 -36 -13 -77 4 -93 38 -14 31 1 95 30 124 25 25 74 24 99 -1z"/>
<path d="M1230 3614 c-47 -25 -89 -49 -94 -54 -8 -8 123 -263 134 -258 54 27
190 103 190 108 0 3 -6 14 -13 24 -13 17 -17 16 -78 -15 -35 -19 -67 -35 -70
-37 -7 -3 -34 57 -28 62 2 1 30 17 61 35 52 29 56 34 45 52 -15 25 -17 24 -86
-10 l-58 -30 -11 24 c-10 22 -7 26 53 60 36 20 65 39 65 44 0 4 -6 15 -12 24
-12 15 -21 12 -98 -29z"/>
<path d="M2809 3628 c-10 -18 -9 -24 6 -33 59 -35 59 -31 -2 -139 -53 -94 -55
-100 -38 -113 11 -7 24 -13 31 -13 7 0 34 39 60 88 65 120 60 116 101 91 19
-12 35 -20 37 -18 2 2 8 14 15 26 10 20 5 25 -90 77 -56 31 -103 56 -105 56
-2 0 -9 -10 -15 -22z"/>
<path d="M929 3413 c-35 -27 -64 -53 -66 -59 -4 -11 163 -224 175 -224 3 0 29
19 59 42 89 69 104 121 54 199 -16 25 -44 56 -63 67 -55 34 -88 29 -159 -25z
m137 -45 c62 -55 67 -100 14 -138 l-29 -20 -57 70 c-31 39 -55 72 -53 73 2 2
17 13 33 25 38 29 49 28 92 -10z"/>
<path d="M3076 3450 c-99 -30 -150 -168 -90 -240 67 -79 160 -80 227 -1 71 85
51 188 -47 232 -46 21 -49 21 -90 9z m94 -80 c58 -58 -31 -185 -106 -152 -53
25 -56 92 -4 143 34 35 81 38 110 9z"/>
<path d="M1850 3426 c-624 -111 -1083 -583 -1171 -1205 -15 -106 -6 -360 16
-461 130 -596 606 -1036 1201 -1111 119 -15 340 -7 449 16 560 117 981 539
1102 1105 25 120 25 420 0 540 -121 563 -537 983 -1097 1105 -102 22 -399 29
-500 11z m510 -44 c372 -87 686 -310 878 -623 57 -94 74 -129 62 -129 -5 0
-10 7 -10 15 0 9 -28 44 -62 78 -48 48 -62 58 -65 45 -3 -10 -9 -18 -15 -18
-15 0 -68 57 -68 74 0 15 -10 19 -67 31 -21 4 -33 3 -33 -4 0 -20 -19 -11 -23
12 l-4 22 -8 -22 c-4 -12 -13 -24 -21 -27 -18 -7 -64 10 -64 24 0 5 -7 10 -15
10 -8 0 -15 4 -15 9 0 17 -40 19 -57 3 -16 -16 -16 -16 -10 1 6 15 -1 17 -58
17 -35 0 -67 -5 -71 -11 -4 -7 -20 -8 -43 -4 -50 9 -221 21 -248 17 -14 -2
-20 -8 -16 -18 7 -20 -63 -19 -83 1 -21 21 -179 16 -179 -5 0 -8 -9 -15 -20
-15 -13 0 -20 -7 -20 -18 0 -10 -8 -23 -17 -28 -25 -14 -16 -35 34 -82 59 -55
72 -82 69 -141 -2 -45 0 -48 18 -43 24 6 37 -9 32 -38 -4 -25 -31 -56 -42 -49
-16 9 -10 -77 6 -93 16 -15 11 -38 -6 -28 -5 4 -9 -25 -10 -67 0 -40 -1 -122
-3 -181 -1 -78 2 -111 11 -119 17 -14 16 -28 -2 -28 -10 0 -14 -8 -11 -22 2
-13 9 -22 15 -21 6 2 11 -10 11 -26 0 -24 -4 -29 -20 -26 -11 2 -20 0 -20 -6
0 -23 -90 -86 -104 -72 -3 4 -6 1 -6 -5 0 -23 -2 -27 -16 -43 -23 -26 3 -81
49 -102 47 -23 199 -24 217 -2 11 14 14 13 24 -1 11 -15 14 -15 28 0 20 19 29
21 23 4 -4 -10 24 -13 120 -14 69 -1 125 1 125 5 0 7 17 7 186 -3 111 -7 195
3 202 23 2 6 8 11 13 11 6 0 7 -5 4 -10 -3 -6 11 0 32 12 20 13 47 21 60 20
12 -2 30 5 41 15 10 10 25 19 33 21 27 7 102 76 145 135 47 64 51 73 32 80 -8
3 -6 6 5 6 9 1 17 9 17 19 0 32 21 93 30 87 11 -7 31 61 24 80 -3 7 -1 16 5
20 17 10 14 193 -3 197 -10 2 -11 9 -3 28 5 14 9 36 9 50 -2 23 -1 23 7 5 5
-12 17 -59 27 -105 26 -119 26 -420 1 -538 -49 -221 -142 -421 -273 -584 -205
-254 -480 -424 -804 -494 -121 -26 -419 -26 -540 0 -550 120 -956 526 -1077
1078 -25 117 -25 419 0 536 18 83 67 235 85 268 9 16 10 15 11 -6 0 -14 1 -36
3 -50 2 -19 -1 -24 -13 -22 -14 2 -16 -6 -14 -43 5 -65 15 -105 27 -105 6 0 9
-3 5 -6 -7 -8 17 -34 32 -34 6 0 8 -7 5 -15 -4 -8 -1 -15 5 -15 6 0 11 -9 11
-20 0 -11 7 -20 15 -20 8 0 15 -8 15 -18 0 -21 37 -55 50 -47 6 4 10 -1 10 -9
0 -18 34 -39 45 -28 5 4 6 2 2 -4 -3 -6 22 -24 59 -41 35 -17 64 -27 64 -22 0
5 13 9 28 9 21 0 32 -7 41 -26 8 -19 17 -25 31 -21 11 3 20 2 20 -3 0 -4 19
-15 43 -25 23 -9 50 -24 61 -33 10 -10 21 -15 24 -12 4 3 8 -8 9 -25 1 -16 7
-31 13 -33 12 -4 -35 -52 -50 -52 -5 0 -17 -9 -27 -19 -24 -25 -39 -27 -92
-12 -24 7 -52 10 -62 8 -11 -3 -19 0 -19 5 0 6 -6 5 -15 -2 -8 -7 -12 -16 -9
-21 3 -5 -2 -9 -10 -9 -10 0 -16 9 -17 23 l0 22 -11 -22 c-11 -23 -28 -31 -28
-13 0 5 -11 12 -25 16 -29 7 -32 22 -7 40 16 12 15 15 -14 41 -17 15 -41 45
-53 66 -13 20 -27 35 -32 31 -5 -3 -9 -2 -8 3 4 21 -3 31 -23 38 -13 4 -26 7
-30 6 -5 -1 -8 7 -8 16 0 35 -14 44 -48 32 -28 -10 -31 -13 -20 -27 10 -12 10
-14 0 -8 -7 4 -15 0 -19 -11 -3 -10 -13 -22 -20 -26 -12 -7 -12 -12 2 -28 10
-10 15 -25 12 -33 -4 -9 1 -20 11 -26 16 -9 16 -11 0 -24 -22 -16 -22 -30 -3
-87 13 -37 20 -45 42 -47 33 -3 40 -9 25 -24 -8 -8 -7 -14 4 -25 8 -8 14 -23
14 -33 0 -22 40 -46 91 -56 46 -8 47 -8 109 -28 66 -21 329 -31 399 -15 112
24 119 28 114 52 -4 20 0 23 24 22 15 0 31 -4 35 -9 9 -14 82 37 115 81 15 20
41 50 57 67 49 51 69 111 74 214 4 78 2 92 -11 92 -11 0 -14 8 -11 30 3 17 1
30 -5 30 -6 0 -8 7 -4 16 4 10 -1 17 -16 21 -14 3 -21 13 -21 28 0 27 -69 92
-97 92 -10 0 -23 -7 -29 -16 -10 -13 -14 -8 -25 27 -8 29 -19 44 -33 47 -12 2
-34 7 -51 10 -16 4 -54 8 -83 10 -50 2 -78 17 -66 36 2 4 0 10 -6 14 -5 3 -10
0 -10 -7 0 -7 -5 -5 -11 6 -9 15 -13 16 -20 5 -7 -11 -9 -11 -9 -1 0 10 -10
12 -36 7 -30 -4 -35 -2 -30 10 3 8 -5 25 -17 37 -15 16 -21 33 -19 53 4 40 22
86 32 80 5 -3 22 7 40 21 17 15 30 21 28 14 -2 -8 10 -14 32 -17 54 -6 134
-49 184 -99 26 -25 51 -42 56 -39 6 3 10 -1 10 -9 0 -15 17 -21 48 -17 7 1 12
-2 11 -6 -4 -26 4 -33 40 -33 23 0 48 8 63 20 22 17 25 25 21 65 -4 34 -2 46
10 51 13 5 13 8 -3 24 -14 14 -17 25 -11 47 9 32 -10 78 -57 133 -27 31 -33
33 -50 23 -16 -10 -23 -9 -31 1 -7 8 -10 20 -9 27 2 8 -7 15 -20 17 -27 4 -84
-17 -77 -28 8 -13 -20 -60 -33 -55 -8 3 -19 5 -25 5 -9 0 -9 2 0 8 36 23 -21
72 -83 72 -18 0 -34 6 -37 14 -4 10 -29 13 -100 13 -86 -1 -94 -3 -89 -19 3
-13 0 -17 -11 -12 -10 3 -20 -2 -26 -15 -7 -13 -17 -18 -27 -14 -9 3 -20 0
-25 -8 -6 -11 -11 -11 -21 -1 -16 16 -28 15 -28 -3 0 -16 -29 -10 -43 9 -6 8
-10 7 -13 -1 -3 -7 -11 -10 -17 -8 -17 6 -50 -21 -42 -34 3 -6 1 -11 -5 -11
-6 0 -8 -4 -5 -10 3 -5 3 -10 -2 -11 -4 0 -20 -2 -35 -3 l-26 -2 36 51 c226
316 527 509 907 580 114 21 399 14 515 -13z m-300 -542 c0 -5 -5 -10 -11 -10
-5 0 -7 5 -4 10 3 6 8 10 11 10 2 0 4 -4 4 -10z m620 -140 c0 -5 7 -10 15 -10
27 0 92 -38 119 -70 14 -17 30 -29 35 -26 9 6 20 -25 26 -74 5 -38 23 -80 35
-80 5 0 10 -20 10 -45 0 -25 4 -45 9 -45 10 0 19 -40 13 -58 -2 -7 -10 -12
-18 -12 -9 0 -14 -11 -14 -33 0 -34 19 -87 32 -87 6 0 4 -19 -7 -70 -2 -8 -4
-21 -4 -27 -1 -7 -7 -13 -14 -13 -14 0 -40 -67 -31 -82 3 -4 2 -8 -3 -8 -4 0
-17 -18 -27 -40 -10 -22 -34 -53 -51 -69 -18 -16 -35 -35 -37 -42 -5 -16 -139
-14 -175 3 -14 7 -31 26 -36 43 -6 17 -15 33 -21 37 -14 9 -15 31 -1 41 7 5 6
10 -2 15 -7 4 -15 27 -18 50 -5 36 -3 42 14 42 18 0 19 11 19 236 l0 236 -24
-5 c-31 -6 -32 21 -3 47 16 13 19 24 15 44 -13 51 -12 77 3 74 7 -1 20 3 28
10 8 6 33 15 56 19 23 3 45 7 50 8 4 0 7 -3 7 -9z m-1806 -15 c-4 -8 -8 -15
-10 -15 -2 0 -4 7 -4 15 0 8 4 15 10 15 5 0 7 -7 4 -15z m2505 -239 c1 -5 -8
-1 -19 9 -17 15 -19 33 -10 65 2 6 28 -61 29 -74z"/>
<path d="M1153 2886 c3 -8 1 -17 -6 -20 -7 -2 -5 -5 5 -5 11 -1 16 6 15 19 -1
11 -5 20 -10 20 -5 0 -7 -6 -4 -14z"/>
<path d="M1095 2870 c-3 -5 -1 -10 4 -10 6 0 11 5 11 10 0 6 -2 10 -4 10 -3 0
-8 -4 -11 -10z"/>
<path d="M1862 2570 c0 -14 2 -19 5 -12 2 6 2 18 0 25 -3 6 -5 1 -5 -13z"/>
<path d="M1597 1649 c7 -7 15 -10 18 -7 3 3 -2 9 -12 12 -14 6 -15 5 -6 -5z"/>
<path d="M1050 1491 c0 -5 5 -13 11 -17 8 -4 10 -30 7 -75 l-5 -69 38 0 c40 0
58 15 40 33 -18 18 -13 27 19 27 43 0 67 38 48 77 -12 26 -17 28 -86 31 -42 2
-72 -1 -72 -7z m104 -37 c7 -18 0 -34 -15 -34 -5 0 -9 11 -9 25 0 28 15 34 24
9z"/>
<path d="M1224 1488 c-3 -5 -1 -15 5 -21 14 -14 15 -94 1 -102 -5 -3 -10 -13
-10 -21 0 -10 13 -14 45 -14 l46 0 -7 35 c-5 31 -4 35 15 35 23 0 28 -19 10
-37 -18 -18 -1 -33 39 -33 l37 0 0 84 0 85 -87 0 c-49 0 -91 -5 -94 -11z m116
-44 c0 -8 -9 -14 -20 -14 -19 0 -28 28 -13 43 9 9 33 -12 33 -29z"/>
<path d="M1445 1475 c-56 -56 -16 -145 65 -145 52 0 90 34 90 81 0 18 3 29 7
26 3 -4 15 0 25 10 17 15 18 14 18 -30 0 -25 -4 -49 -10 -52 -5 -3 -10 -13
-10 -21 0 -10 13 -14 50 -14 37 0 50 4 50 14 0 8 -4 18 -10 21 -5 3 -10 26
-10 51 0 24 5 44 10 44 6 0 10 -4 10 -10 0 -5 9 -10 20 -10 20 0 25 15 14 44
-5 13 -22 16 -81 16 -66 0 -75 -2 -80 -20 -5 -20 -5 -20 -30 0 -37 29 -97 27
-128 -5z m72 -27 c16 -21 24 -66 13 -73 -16 -10 -37 12 -43 43 -8 40 9 57 30
30z"/>
<path d="M1805 1475 c-17 -16 -25 -35 -25 -60 0 -25 8 -44 25 -60 16 -17 35
-25 60 -25 25 0 44 8 60 25 17 16 25 35 25 60 0 25 -8 44 -25 60 -16 17 -35
25 -60 25 -25 0 -44 -8 -60 -25z m75 -50 c11 -34 7 -55 -10 -55 -11 0 -31 70
-24 82 11 17 23 7 34 -27z"/>
<path d="M1985 1475 c-36 -35 -35 -96 1 -124 42 -33 99 -28 135 10 35 38 30
49 -21 49 -41 0 -62 -16 -39 -31 11 -7 10 -9 -4 -9 -24 0 -41 47 -28 77 13 28
26 29 48 3 31 -36 60 -20 49 26 -6 22 -11 24 -62 24 -45 0 -59 -4 -79 -25z"/>
<path d="M2156 1483 c14 -32 16 -103 4 -118 -18 -22 -3 -35 41 -35 l40 0 -7
36 c-5 27 -4 35 5 30 6 -4 11 -15 11 -25 0 -30 21 -39 94 -40 63 0 68 1 63 19
-4 16 0 20 20 20 20 0 23 -4 18 -20 -6 -18 -1 -19 89 -19 88 0 121 8 96 24
-21 13 -10 35 18 35 37 0 52 17 52 57 0 42 -21 53 -99 53 -48 0 -61 -3 -61
-15 0 -8 5 -15 10 -15 6 0 10 -24 10 -54 0 -86 -19 -84 -62 5 -15 31 -34 61
-42 68 -21 17 -50 10 -54 -14 -10 -50 -45 -115 -63 -115 -12 0 -19 7 -19 20 0
10 -7 23 -16 28 -11 6 -13 11 -5 16 15 9 14 49 -1 64 -7 7 -41 12 -81 12 -62
0 -68 -2 -61 -17z m86 -45 c-9 -9 -12 -7 -12 12 0 19 3 21 12 12 9 -9 9 -15 0
-24z m398 7 c0 -14 -4 -25 -10 -25 -5 0 -10 11 -10 25 0 14 5 25 10 25 6 0 10
-11 10 -25z m-206 -30 c3 -9 0 -15 -9 -15 -9 0 -12 6 -9 15 4 8 7 15 9 15 2 0
5 -7 9 -15z"/>
<path d="M2717 1493 c-3 -2 -3 -31 0 -63 4 -39 2 -65 -6 -74 -17 -21 -5 -24
90 -24 l86 -1 -5 68 c-6 83 6 95 48 49 30 -32 39 -71 20 -83 -5 -3 -10 -13
-10 -21 0 -10 13 -14 50 -14 37 0 50 4 50 14 0 8 -4 18 -10 21 -27 17 11 105
46 105 8 0 14 7 14 16 0 12 -9 14 -37 12 -30 -2 -37 -7 -35 -20 2 -10 -2 -18
-8 -18 -5 0 -10 9 -10 20 0 18 -7 19 -139 18 -77 0 -142 -2 -144 -5z m101 -46
c2 -12 -3 -17 -17 -17 -12 0 -21 6 -21 13 0 31 32 34 38 4z m2 -61 c0 -7 -6
-19 -14 -25 -11 -9 -15 -8 -20 5 -3 9 -4 20 0 25 8 14 34 11 34 -5z"/>
<path d="M2080 1221 c0 -29 -33 -34 -97 -15 -17 5 -23 2 -23 -9 0 -9 -10 -17
-22 -19 -16 -2 -30 -18 -45 -48 -30 -57 -30 -96 -2 -105 19 -6 21 -12 16 -56
-4 -36 -3 -48 5 -43 7 5 9 2 5 -8 -7 -20 26 -52 75 -73 72 -30 171 -13 227 38
80 74 81 244 2 276 -18 8 -31 21 -31 31 0 15 -19 31 -42 34 -3 1 -10 4 -14 9
-4 4 -18 7 -31 7 -16 0 -23 -6 -23 -19z"/>
<path d="M2560 1230 c0 -9 -67 -20 -121 -20 -45 1 -86 -30 -110 -84 -33 -73
-19 -186 23 -186 10 0 18 -4 18 -10 0 -5 6 -7 14 -4 10 4 16 -6 21 -35 6 -34
11 -42 41 -51 27 -9 98 -9 152 0 1 0 2 6 2 13 0 6 19 21 43 32 29 14 43 27 45
44 2 13 10 31 18 38 22 23 18 111 -8 163 -29 55 -54 72 -72 48 -18 -24 -28
-22 -26 5 1 12 2 27 1 33 -1 13 -41 27 -41 14z m-143 -332 c-3 -8 -6 -5 -6 6
-1 11 2 17 5 13 3 -3 4 -12 1 -19z"/>
<path d="M1569 1209 c-13 -11 -17 -19 -9 -19 22 0 5 -10 -26 -16 -16 -3 -34
-10 -41 -15 -7 -6 -16 -8 -22 -5 -10 7 -21 -16 -21 -45 0 -26 19 -24 30 4 8
19 9 17 9 -16 1 -26 -6 -45 -21 -61 -29 -30 -33 -46 -11 -46 15 0 14 -2 -3
-15 -10 -8 -16 -15 -11 -16 4 -1 12 -3 17 -4 6 -1 15 -3 20 -4 14 -2 12 -38
-2 -45 -18 -7 39 -54 82 -67 42 -13 120 -7 83 6 -15 4 -23 15 -23 29 1 21 1
21 15 2 8 -11 15 -14 15 -8 0 7 5 12 12 12 6 0 9 -3 5 -6 -3 -3 -1 -12 6 -19
19 -20 60 -3 77 33 9 18 23 32 33 32 43 0 62 132 28 205 -19 42 -51 77 -51 56
0 -7 -10 -10 -24 -7 -14 2 -27 -1 -30 -7 -2 -7 -5 -4 -5 6 -1 11 6 17 19 17
11 0 20 5 20 11 0 5 -4 8 -9 5 -5 -3 -11 1 -15 9 -3 8 -13 15 -23 14 -10 0
-13 -3 -7 -5 19 -8 4 -44 -18 -44 -26 0 -60 19 -53 29 11 19 -25 19 -46 0z"/>
<path d="M1515 1200 c-3 -5 1 -10 9 -10 9 0 16 5 16 10 0 6 -4 10 -9 10 -6 0
-13 -4 -16 -10z"/>
<path d="M1882 970 c0 -14 2 -19 5 -12 2 6 2 18 0 25 -3 6 -5 1 -5 -13z"/>
<path d="M3295 3202 c-48 -23 -69 -45 -90 -95 -18 -44 -10 -88 25 -137 19 -27
85 -70 108 -70 5 0 30 16 55 36 l47 36 -38 49 c-40 52 -52 58 -72 34 -10 -12
-9 -20 5 -41 23 -36 7 -51 -33 -30 -33 17 -42 34 -42 76 0 39 59 90 105 90 43
0 79 -40 70 -80 -4 -19 0 -31 16 -45 21 -19 21 -19 35 0 21 28 17 78 -8 115
-50 72 -114 94 -183 62z"/>
<path d="M636 3101 c-36 -48 -66 -91 -66 -94 0 -4 9 -11 21 -18 18 -9 25 -7
48 20 l26 30 94 -69 93 -70 21 26 c12 15 16 29 10 32 -5 4 -49 36 -96 71 l-87
65 26 34 c25 32 25 34 8 47 -11 8 -22 15 -25 15 -4 0 -37 -40 -73 -89z"/>
<path d="M3468 2893 l-126 -67 14 -28 c8 -15 16 -28 18 -28 2 0 24 12 50 26
73 41 88 9 36 -82 l-29 -52 27 -61 c20 -46 32 -61 47 -61 33 0 53 -21 65 -68
10 -40 9 -44 -15 -65 -24 -20 -26 -27 -18 -56 l9 -33 123 97 c117 94 123 99
117 128 -3 17 -7 32 -9 33 -1 1 -67 7 -147 14 -80 7 -147 14 -149 16 -2 2 8
23 23 48 14 24 26 52 26 61 0 15 2 15 22 1 51 -36 131 0 131 59 0 27 -71 185
-83 185 -3 0 -62 -31 -132 -67z m152 -108 c0 -15 -25 -26 -43 -19 -11 4 -47
64 -47 79 0 2 12 11 27 19 27 13 28 13 45 -26 10 -22 18 -46 18 -53z m73 -262
c4 -3 -8 -17 -25 -30 -34 -24 -41 -22 -53 15 -6 20 -3 22 33 22 21 0 42 -3 45
-7z"/>
<path d="M520 2931 c-5 -11 -10 -24 -10 -29 0 -6 46 -37 103 -70 157 -91 144
-87 161 -54 l15 28 -124 72 c-68 40 -126 72 -129 72 -3 0 -10 -9 -16 -19z"/>
<path d="M475 2790 c-12 -4 -26 -14 -33 -22 -13 -17 -74 -159 -69 -164 1 -2
62 -28 135 -58 l132 -55 16 37 c8 20 25 65 37 98 20 59 20 62 3 88 -23 37 -60
52 -94 40 -22 -8 -30 -6 -47 12 -24 27 -53 35 -80 24z m50 -71 c4 -6 0 -30 -9
-54 -14 -34 -21 -42 -37 -38 -30 8 -33 21 -14 64 18 38 46 52 60 28z m119 -44
c6 -16 -23 -95 -35 -95 -4 0 -19 4 -34 10 -25 10 -25 10 -10 47 24 58 64 77
79 38z"/>
<path d="M326 2449 c-4 -23 -5 -43 -4 -44 2 -2 40 -21 85 -43 l82 -40 -94 -7
-94 -7 -7 -44 c-3 -25 -5 -46 -3 -48 2 -2 66 -14 141 -28 145 -26 148 -25 148
21 0 15 -16 20 -87 32 -96 15 -95 16 22 27 80 7 80 7 83 37 3 28 -1 32 -73 64
-42 18 -74 36 -71 38 2 2 38 -2 81 -10 81 -16 91 -12 83 29 -2 14 -28 22 -123
40 -166 32 -161 32 -169 -17z"/>
<path d="M3653 2307 l-103 -10 0 -35 0 -34 54 6 54 7 7 -50 c9 -68 40 -101 95
-101 79 0 102 50 84 184 l-7 46 -41 -2 c-22 0 -87 -6 -143 -11z m135 -99 c-3
-37 -7 -44 -27 -46 -29 -4 -41 12 -41 56 0 30 2 32 36 32 l35 0 -3 -42z"/>
<path d="M354 2100 c-31 -12 -74 -68 -75 -98 -3 -86 11 -120 64 -153 42 -26
139 -23 179 6 77 57 75 187 -4 235 -35 21 -123 27 -164 10z m148 -80 c24 -30
23 -69 -4 -97 -17 -18 -32 -23 -74 -23 -45 0 -56 4 -73 26 -12 15 -21 33 -21
40 0 28 24 64 49 73 40 16 103 6 123 -19z"/>
<path d="M3570 1992 c0 -29 1 -30 60 -37 57 -7 60 -8 60 -33 0 -65 -8 -72 -70
-72 -54 0 -58 -2 -64 -26 -4 -15 -6 -28 -4 -29 4 -4 225 -25 266 -25 29 0 32
3 32 29 0 28 -2 30 -55 36 l-56 7 3 47 3 46 58 3 c55 3 57 4 57 31 0 34 -10
37 -177 47 l-113 7 0 -31z"/>
<path d="M459 1761 c-25 -25 -29 -37 -29 -83 0 -30 -6 -63 -14 -73 -13 -18
-14 -17 -30 8 -18 26 -14 67 5 67 11 0 12 40 0 59 -7 10 -13 11 -29 2 -30 -16
-42 -43 -42 -91 0 -81 59 -135 119 -111 34 14 51 48 51 99 0 74 24 104 58 70
20 -20 15 -76 -7 -88 -17 -9 -18 -14 -9 -40 13 -37 22 -38 59 -1 23 24 29 38
29 73 0 112 -94 176 -161 109z"/>
<path d="M3728 1660 c-87 -28 -89 -28 -144 -13 -48 14 -57 14 -65 2 -21 -33
-10 -47 49 -64 49 -15 66 -26 121 -87 35 -38 67 -66 71 -61 4 4 10 20 13 34 5
21 -1 33 -33 64 -22 22 -40 42 -40 45 0 4 27 14 60 23 33 10 60 23 60 30 0 6
3 22 6 35 8 27 10 27 -98 -8z"/>
<path d="M3415 1364 c-10 -15 -19 -40 -19 -54 -1 -27 -1 -27 -26 -9 -31 22
-80 35 -80 21 0 -18 20 -65 33 -76 7 -6 10 -10 8 -9 -7 4 -81 -40 -81 -48 0
-11 55 -49 71 -49 8 0 7 -6 -4 -18 -9 -10 -20 -32 -23 -50 -5 -26 -4 -30 12
-27 79 16 84 15 84 -8 0 -13 6 -31 13 -41 12 -17 15 -16 43 16 l29 34 34 -23
c19 -13 40 -23 46 -23 13 0 30 64 21 78 -2 4 16 7 40 8 24 0 47 4 51 7 7 8
-44 77 -57 77 -6 0 7 15 28 34 43 40 37 55 -27 63 -40 6 -41 7 -41 44 0 42 -9
47 -50 26 -22 -11 -27 -9 -55 22 l-31 33 -19 -28z"/>
<path d="M665 1324 c-10 -15 -19 -40 -19 -54 -1 -27 -1 -27 -26 -9 -14 10 -37
21 -52 25 -33 7 -36 -6 -13 -50 20 -38 20 -39 -20 -60 -19 -11 -35 -23 -35
-27 0 -11 55 -49 71 -49 8 0 7 -6 -4 -18 -9 -10 -20 -32 -23 -50 -7 -33 -4
-34 74 -17 18 4 22 1 22 -18 0 -13 6 -31 13 -41 12 -17 15 -16 43 16 l29 34
34 -23 c19 -13 40 -23 46 -23 14 0 29 65 19 81 -4 8 1 9 15 4 25 -8 81 3 81
15 0 4 -15 23 -32 42 l-33 33 35 32 c41 37 34 52 -29 60 -40 6 -41 7 -41 44 0
42 -9 47 -50 26 -22 -11 -27 -9 -55 22 l-31 33 -19 -28z"/>
<path d="M3142 978 c-17 -21 -19 -133 -2 -152 13 -17 15 -17 27 0 7 10 13 27
13 38 0 16 17 4 73 -52 73 -73 73 -73 92 -52 18 20 18 21 -11 53 -60 67 -169
177 -175 177 -4 0 -11 -6 -17 -12z"/>
<path d="M2997 836 c-9 -7 -17 -23 -17 -36 0 -12 -5 -40 -11 -61 -9 -30 -9
-42 1 -54 10 -12 16 -13 26 -4 8 6 14 17 14 25 0 34 22 18 72 -51 29 -41 56
-75 59 -75 4 0 16 8 28 18 21 17 21 17 -63 130 -46 62 -85 114 -87 116 -2 3
-12 -1 -22 -8z"/>
<path d="M1092 820 c-37 -35 -33 -79 14 -139 40 -52 44 -81 11 -81 -39 0 -69
29 -65 61 4 22 -1 33 -20 45 -30 20 -42 7 -42 -47 0 -94 135 -158 195 -93 39
42 33 82 -27 154 -34 42 -36 60 -5 60 31 0 61 -33 53 -57 -8 -26 48 -62 58
-37 36 94 -100 200 -172 134z"/>
<path d="M1280 598 c-36 -66 -66 -124 -68 -128 -4 -10 50 -32 58 -23 10 11
130 232 130 240 0 8 -33 32 -45 32 -5 1 -39 -54 -75 -121z"/>
<path d="M2768 690 c-27 -28 -30 -35 -24 -72 8 -48 48 -127 80 -157 53 -50
139 -25 151 43 9 45 -35 145 -82 186 -45 40 -85 40 -125 0z m111 -82 c40 -71
48 -106 27 -114 -23 -9 -48 17 -80 82 -29 60 -28 84 3 84 13 0 29 -17 50 -52z"/>
<path d="M1397 533 c-26 -71 -47 -133 -47 -139 0 -12 38 -26 50 -19 4 2 17 33
30 67 12 35 25 66 29 71 4 4 15 -36 25 -88 18 -95 30 -115 68 -115 8 0 33 53
62 131 47 127 49 132 31 146 -11 7 -23 12 -29 10 -5 -2 -23 -41 -41 -86 l-31
-84 -18 106 c-16 93 -21 106 -43 116 -13 6 -27 11 -31 11 -4 0 -29 -57 -55
-127z"/>
<path d="M2568 604 c-32 -17 -48 -43 -48 -77 0 -31 5 -35 35 -30 17 4 25 13
27 32 2 20 9 27 30 29 43 5 45 -28 8 -110 -31 -66 -50 -148 -36 -148 4 0 47
14 96 31 90 31 103 44 82 77 -7 10 -17 9 -52 -3 -24 -8 -45 -13 -47 -11 -2 2
7 27 21 55 30 57 32 90 11 130 -22 44 -74 54 -127 25z"/>
<path d="M1780 553 c-52 -19 -90 -83 -90 -153 0 -83 32 -125 112 -144 32 -7
74 7 106 36 29 28 28 42 -3 56 -21 10 -28 8 -49 -13 -14 -14 -32 -25 -41 -25
-22 0 -65 45 -65 68 0 69 33 122 75 122 25 0 59 -26 67 -50 6 -20 58 -4 58 19
0 23 -42 68 -75 81 -28 11 -70 12 -95 3z"/>
<path d="M2000 401 c0 -71 3 -136 6 -145 5 -13 25 -16 115 -16 l109 0 0 31 0
30 -80 -7 -80 -7 0 36 0 36 70 7 c65 6 70 8 70 30 0 23 -3 24 -70 24 l-70 0 0
30 0 30 75 0 c73 0 75 1 75 25 l0 25 -110 0 -110 0 0 -129z"/>
<path d="M2318 393 c-22 -3 -28 -10 -28 -28 0 -33 13 -38 71 -30 47 7 50 9 47
34 -2 21 -8 26 -33 27 -16 1 -42 -1 -57 -3z"/>
</g>
</svg>
