<?xml version="1.0" standalone="no"?>
<!DOCTYPE svg PUBLIC "-//W3C//DTD SVG 20010904//EN"
 "http://www.w3.org/TR/2001/REC-SVG-20010904/DTD/svg10.dtd">
<svg version="1.0" xmlns="http://www.w3.org/2000/svg"
 width="700.000000pt" height="700.000000pt" viewBox="0 0 700.000000 700.000000"
 preserveAspectRatio="xMidYMid meet">
<metadata>
Created by potrace 1.14, written by Peter Selinger 2001-2017
</metadata>
<g transform="translate(0.000000,700.000000) scale(0.100000,-0.100000)"
fill="#000000" stroke="none">
<path d="M1211 6959 c-17 -22 -33 -50 -36 -60 -4 -10 -11 -19 -16 -19 -6 0 -7
-4 -4 -10 3 -5 1 -10 -6 -10 -7 0 -9 -3 -6 -7 4 -3 2 -12 -4 -19 -16 -19 -4
-53 32 -94 40 -45 47 -65 46 -123 -1 -26 0 -47 3 -47 3 0 6 -18 7 -41 1 -22 5
-49 8 -60 5 -16 8 -17 20 -5 9 8 30 12 55 11 39 -3 48 5 40 40 -5 24 -13 124
-14 169 -1 31 4 51 12 54 6 2 12 10 12 17 0 8 7 21 16 30 23 22 21 62 -5 84
-11 10 -21 23 -21 29 0 6 -11 19 -25 30 -14 11 -25 24 -25 29 0 5 -13 17 -30
26 l-29 18 -30 -42z"/>
<path d="M1246 6425 c-16 -9 -24 -10 -20 -3 4 6 -5 3 -19 -8 -49 -36 -42 -44
33 -41 39 1 70 5 70 8 0 4 12 7 28 7 15 0 41 2 57 5 17 3 32 6 35 6 9 2 -21
25 -37 28 -55 12 -122 11 -147 -2z"/>
<path d="M1486 6373 c-10 -10 4 -23 25 -23 10 0 19 -4 19 -8 0 -5 18 -17 40
-27 22 -10 40 -22 40 -27 0 -5 5 -6 10 -3 6 3 10 1 10 -4 0 -6 5 -11 10 -11
17 0 80 -62 107 -104 29 -45 37 -121 17 -151 -19 -27 -18 -34 9 -31 78 9 121
108 81 191 -14 30 -96 115 -119 124 -36 14 -81 37 -87 46 -4 5 -10 6 -14 3 -4
-4 -15 -3 -26 3 -32 17 -112 32 -122 22z"/>
<path d="M1325 6360 c-4 -6 -10 -8 -15 -5 -4 3 -10 -1 -12 -8 -8 -25 1 -344
11 -370 9 -24 15 -27 45 -23 20 2 39 7 45 10 7 5 9 91 1 91 -1 0 -3 14 -5 30
-1 17 -6 53 -10 80 -5 28 -9 58 -9 68 0 9 -3 17 -6 17 -4 0 -6 16 -5 35 1 20
-2 38 -7 41 -4 3 -6 8 -4 12 2 4 -2 13 -10 19 -8 8 -15 9 -19 3z"/>
<path d="M1390 6365 c0 -3 12 -18 26 -33 28 -29 85 -137 77 -145 -2 -3 0 -14
5 -24 11 -21 20 -66 27 -137 3 -27 8 -52 11 -55 3 -3 32 -6 65 -6 58 -1 59 0
65 30 6 34 1 102 -9 112 -4 3 -7 14 -7 23 0 10 -7 23 -15 30 -8 7 -13 15 -10
19 7 12 -133 151 -153 151 -4 0 -18 9 -32 20 -24 19 -50 26 -50 15z"/>
<path d="M1100 6330 c0 -4 -16 -12 -35 -20 -19 -8 -35 -17 -35 -22 0 -4 -7 -8
-15 -8 -19 0 -158 -134 -149 -143 4 -4 2 -7 -4 -7 -5 0 -18 -20 -28 -45 -34
-89 6 -182 85 -200 44 -9 54 1 31 33 -28 38 -41 113 -24 143 7 13 13 32 14 42
0 10 7 20 15 23 8 4 13 10 10 14 -3 4 36 48 85 99 50 50 90 92 90 94 0 1 -9 3
-20 3 -11 0 -20 -3 -20 -6z"/>
<path d="M1200 6323 c-59 -41 -122 -132 -150 -214 -28 -80 -11 -198 27 -200
14 0 15 -2 3 -6 -8 -3 -18 -11 -22 -17 -5 -8 -8 -7 -8 2 0 10 -5 10 -20 2 -11
-6 -24 -9 -28 -7 -4 3 -15 -3 -24 -13 -15 -14 -16 -19 -5 -34 13 -17 19 -17
88 -5 41 7 82 13 92 12 9 0 17 3 17 6 0 4 12 8 28 9 24 1 47 4 142 17 14 2 25
4 25 4 0 3 145 12 238 15 48 1 87 -1 87 -6 0 -4 -12 -8 -27 -8 -57 2 -203 -13
-203 -20 0 -4 34 -7 75 -6 41 0 75 4 75 7 0 3 10 6 23 6 55 1 91 5 80 10 -7 2
-13 10 -13 16 0 5 3 7 6 4 12 -12 44 14 44 35 0 21 -1 21 -197 14 -109 -4
-213 -8 -230 -8 -18 -1 -33 -4 -33 -7 0 -3 -17 -7 -38 -7 -20 -1 -53 -4 -72
-8 -31 -5 -33 -5 -14 7 17 10 20 20 17 57 -10 133 7 243 51 329 19 36 6 42
-34 14z"/>
<path d="M1384 5861 c-5 -5 -71 -13 -121 -14 -18 -1 -33 -4 -33 -7 0 -4 -13
-7 -30 -8 -53 -3 -60 -5 -60 -16 0 -6 -4 -5 -9 3 -6 10 -13 10 -28 2 -11 -5
-23 -7 -27 -4 -3 3 -6 2 -6 -4 0 -6 -11 -9 -25 -8 -14 2 -28 -1 -31 -7 -8 -13
69 -7 78 7 5 6 8 5 8 -3 0 -8 5 -10 13 -5 12 8 34 12 97 18 19 2 35 4 35 5 0
5 137 23 173 23 17 0 32 5 32 11 0 11 -56 16 -66 7z"/>
<path d="M1673 5837 c-16 -7 -19 -14 -13 -26 13 -24 23 -55 22 -63 -1 -5 3 -8
9 -8 5 0 8 -4 4 -9 -3 -6 3 -15 13 -20 27 -14 71 -21 77 -12 2 5 16 7 30 6 14
-2 25 -2 25 0 0 2 -15 19 -34 37 -19 18 -43 49 -54 68 -20 37 -41 44 -79 27z"/>
<path d="M1603 5833 c-16 -6 -17 -45 -1 -61 7 -7 9 -12 5 -12 -4 0 -1 -13 8
-29 9 -19 22 -29 35 -28 21 1 28 31 10 42 -6 4 -8 10 -5 15 3 5 1 11 -4 15 -6
3 -8 11 -5 18 6 16 -27 46 -43 40z"/>
<path d="M1518 5818 c-4 -37 -3 -44 5 -55 5 -7 6 -13 3 -13 -4 0 3 -14 15 -31
20 -28 24 -30 34 -15 10 13 9 27 -8 71 -18 50 -45 73 -49 43z"/>
<path d="M1441 5802 c-7 -13 -7 -23 2 -32 10 -10 9 -11 -3 -5 -13 8 -13 7 -1
-8 7 -9 10 -17 7 -17 -4 0 -2 -8 3 -18 12 -22 57 -27 65 -6 3 8 2 12 -4 9 -7
-5 -23 45 -25 80 0 18 -34 16 -44 -3z"/>
<path d="M1289 5799 c-8 -5 -10 -9 -4 -9 5 0 4 -5 -3 -12 -15 -15 -16 -31 0
-22 7 5 8 3 3 -7 -5 -7 -9 -26 -10 -41 -1 -25 2 -28 24 -25 23 3 26 9 29 50 3
52 -14 82 -39 66z"/>
<path d="M1359 5798 c-7 -68 -3 -99 14 -104 9 -3 26 -3 36 1 16 5 18 11 11 35
-5 17 -6 30 -2 30 4 0 0 5 -8 10 -9 6 -11 10 -3 10 7 0 10 7 7 15 -7 18 -53
20 -55 3z"/>
<path d="M1199 5773 c-8 -9 -9 -14 -3 -10 8 5 11 -9 9 -46 -3 -46 0 -53 16
-54 13 -1 21 7 25 25 3 15 7 33 10 40 2 6 0 12 -5 12 -4 0 -6 11 -3 25 3 20 0
25 -16 25 -11 0 -26 -8 -33 -17z"/>
<path d="M1129 5742 c-1 -39 -4 -68 -10 -92 -3 -9 2 -14 11 -11 8 2 20 4 27 4
7 0 10 4 7 9 -3 4 -1 8 5 8 5 0 9 25 8 57 -2 50 -4 56 -24 59 -20 3 -23 -1
-24 -34z"/>
<path d="M1049 5763 c-10 -3 -20 -19 -24 -41 -3 -20 -17 -54 -31 -74 -25 -40
-31 -64 -13 -52 10 6 36 11 87 16 6 1 12 8 12 15 0 8 5 11 12 7 6 -4 8 -3 4 4
-3 6 -2 13 4 17 6 4 8 9 6 13 -2 4 -1 26 4 50 4 23 5 43 1 43 -18 4 -48 5 -62
2z"/>
<path d="M1490 5658 c0 -6 12 -21 26 -34 14 -13 23 -28 20 -33 -3 -5 0 -11 7
-14 7 -3 21 -31 31 -63 11 -33 23 -70 27 -84 5 -14 11 -47 13 -75 3 -27 6 -52
7 -55 1 -3 2 -12 3 -20 1 -18 79 -26 117 -12 22 9 25 16 24 55 0 25 -3 49 -8
53 -4 4 -7 18 -7 31 0 13 -4 23 -10 23 -5 0 -9 3 -8 8 7 23 -64 112 -131 162
-18 14 -39 30 -46 37 -7 7 -15 9 -19 6 -3 -4 -6 -2 -6 4 0 6 -9 13 -20 16 -11
3 -20 0 -20 -5z"/>
<path d="M1574 5661 c8 -12 76 -45 89 -43 4 1 7 -2 7 -6 0 -5 11 -14 25 -20
34 -16 50 -28 106 -85 54 -54 74 -102 65 -155 -3 -20 -7 -43 -8 -49 -1 -7 -6
-13 -12 -13 -6 0 -5 -4 3 -9 8 -5 21 -6 30 -3 25 9 71 54 71 69 0 7 4 13 8 13
12 0 8 60 -7 102 -22 66 -143 156 -253 189 -56 17 -132 23 -124 10z"/>
<path d="M1407 5653 c-17 -4 -18 -18 -16 -190 2 -101 7 -187 11 -189 5 -3 6
-10 3 -15 -4 -5 1 -9 9 -9 9 0 16 -4 16 -10 0 -5 -6 -10 -14 -10 -8 0 -22 -3
-32 -7 -12 -4 -15 -3 -10 6 6 10 4 10 -10 2 -25 -13 -135 -30 -128 -19 3 4 11
8 18 8 18 0 38 25 28 34 -9 10 -11 196 -2 196 4 0 6 11 5 25 -2 14 1 27 6 31
5 3 7 9 4 14 -3 5 -1 11 5 15 6 4 8 11 5 16 -4 5 -2 9 4 9 6 0 8 7 5 15 -4 8
-1 15 6 15 7 0 10 7 7 15 -4 8 -2 17 4 20 5 4 7 11 4 16 -4 5 -13 3 -21 -4
-36 -29 -124 -122 -124 -130 0 -5 -9 -22 -21 -38 -11 -16 -18 -33 -15 -38 4
-5 2 -11 -4 -13 -15 -5 -29 -135 -16 -148 5 -5 7 -10 3 -10 -3 0 -2 -11 3 -25
16 -42 -3 -60 -75 -69 -9 -1 -9 -35 0 -45 6 -6 49 -4 85 3 19 4 49 10 65 12
17 3 41 7 55 10 14 3 32 5 40 5 8 1 22 3 30 7 8 3 26 7 40 8 62 6 160 15 215
19 33 2 60 5 60 5 0 1 39 2 87 3 92 2 97 4 102 34 4 19 -1 20 -140 19 -79 0
-144 -4 -144 -9 0 -5 -6 -4 -14 2 -10 9 -16 9 -21 1 -5 -8 -11 -8 -21 1 -11 9
-14 8 -14 -2 0 -11 -2 -11 -10 1 -5 8 -10 10 -10 4 0 -6 -7 -11 -15 -11 -26 0
-16 15 15 22 30 7 31 8 28 61 -2 30 -5 54 -8 54 -3 0 -5 12 -6 28 -1 31 -11
105 -18 142 -3 13 -8 42 -12 64 -3 22 -8 44 -10 48 -5 8 -8 8 -37 1z m-245
-465 c-7 -7 -12 -8 -12 -2 0 14 12 26 19 19 2 -3 -1 -11 -7 -17z"/>
<path d="M1197 5624 c-15 -8 -27 -12 -27 -9 0 3 -6 1 -12 -5 -7 -6 -33 -24
-58 -40 -54 -35 -120 -95 -120 -109 0 -5 -4 -11 -8 -13 -4 -1 -18 -20 -31 -42
-54 -87 -23 -193 64 -223 47 -16 70 0 42 29 -39 42 -45 148 -9 186 6 7 12 20
12 28 0 8 5 14 11 14 5 0 7 5 4 10 -3 6 -1 10 5 10 6 0 15 11 22 25 6 13 14
22 18 20 4 -2 20 14 36 35 16 22 34 40 40 40 7 0 15 7 18 16 3 8 11 12 17 8 7
-4 9 -3 5 4 -3 5 -1 12 6 14 7 3 8 7 2 10 -5 3 -21 0 -37 -8z"/>
<path d="M1630 5173 c0 -5 -20 -8 -44 -8 -25 1 -43 -1 -41 -5 2 -3 -21 -6 -50
-6 -36 0 -52 3 -48 10 4 7 1 6 -8 -1 -8 -6 -32 -14 -54 -18 -65 -11 -109 -17
-122 -18 -7 0 -13 -3 -13 -6 0 -3 -17 -7 -38 -8 -20 0 -50 -4 -67 -8 -40 -8
-58 -26 -19 -18 16 3 45 7 64 8 19 2 35 4 35 5 0 2 68 12 93 13 12 1 22 4 22
8 0 4 8 6 18 5 9 -2 29 0 44 5 16 4 30 3 34 -2 4 -6 10 -7 17 0 7 5 37 10 67
12 30 1 58 7 62 13 5 7 8 7 8 -2 0 -8 5 -10 13 -5 6 4 36 8 66 8 33 0 56 5 58
12 3 8 -8 11 -31 10 -20 -1 -36 -6 -36 -11 0 -5 -7 -3 -15 4 -8 7 -15 8 -15 3z"/>
<path d="M1745 5170 c-4 -6 7 -8 32 -4 50 8 55 14 10 14 -20 0 -39 -5 -42 -10z"/>
<path d="M1752 5131 c-3 -7 0 -22 6 -32 7 -10 12 -24 12 -31 1 -28 37 -60 68
-61 18 -1 32 -6 32 -11 0 -4 6 -4 13 1 6 6 20 9 30 8 24 -4 22 2 -20 44 -21
21 -46 53 -55 70 -14 26 -23 31 -49 29 -17 -1 -34 -9 -37 -17z"/>
<path d="M1684 5125 c-12 -30 23 -115 47 -115 10 0 22 0 26 0 4 0 8 6 9 15 1
8 -2 13 -7 9 -5 -3 -9 3 -9 14 0 10 -3 22 -7 26 -8 8 -10 13 -12 45 -1 21 -40
26 -47 6z"/>
<path d="M1539 5120 c-13 -8 -15 -17 -8 -52 4 -24 8 -46 9 -49 0 -10 37 -17
49 -10 8 5 6 21 -5 57 -20 60 -25 65 -45 54z"/>
<path d="M1606 5093 c3 -21 7 -42 7 -48 5 -25 57 -57 57 -34 0 6 6 7 13 3 6
-4 4 2 -5 13 -10 11 -18 31 -18 46 0 14 -5 29 -10 32 -6 4 -8 11 -5 16 4 5 -5
9 -19 9 -24 0 -26 -2 -20 -37z"/>
<path d="M1459 5110 c-10 -6 -14 -23 -14 -52 1 -54 8 -65 37 -63 20 2 23 7 24
46 1 66 -13 88 -47 69z"/>
<path d="M1374 5096 c-6 -18 -10 -116 -4 -116 3 0 15 3 28 6 19 6 22 13 21 48
-1 22 -3 48 -5 57 -5 18 -34 21 -40 5z"/>
<path d="M1310 5088 c0 -4 -8 -8 -17 -8 -10 0 -14 -4 -8 -8 6 -4 10 -29 10
-57 0 -38 4 -50 15 -50 23 -1 30 15 30 76 0 43 -3 56 -15 56 -8 0 -15 -4 -15
-9z"/>
<path d="M1246 5081 c-4 -6 -12 -9 -17 -6 -5 4 -9 -4 -10 -17 -3 -68 -5 -84
-11 -94 -10 -15 25 -25 43 -13 8 5 14 29 15 62 2 56 -8 89 -20 68z"/>
<path d="M1160 5068 c0 -6 -7 -8 -15 -5 -17 7 -28 -7 -31 -42 -3 -24 -22 -69
-34 -81 -31 -31 -30 -37 8 -35 54 3 102 30 103 60 1 14 2 37 3 53 1 15 5 32 9
38 4 7 -3 14 -18 16 -14 3 -25 1 -25 -4z"/>
<path d="M1676 4983 c-1 -1 -22 -3 -46 -4 -25 -2 -48 -7 -52 -13 -5 -8 -8 -7
-8 1 0 8 -9 9 -29 3 -16 -4 -32 -6 -35 -3 -3 3 -12 0 -21 -7 -10 -8 -15 -9
-15 -1 0 7 -8 8 -26 0 -15 -5 -29 -7 -32 -4 -3 2 -11 0 -19 -6 -7 -6 -13 -8
-13 -5 0 4 -9 2 -20 -4 -15 -8 -20 -8 -20 1 0 8 -4 8 -13 1 -7 -6 -31 -12 -52
-14 -22 -2 -42 -6 -45 -9 -3 -3 -30 -11 -60 -17 -30 -7 -64 -15 -75 -18 -11
-3 -24 -6 -30 -7 -5 -2 -16 -6 -22 -10 -7 -5 -13 -6 -13 -2 0 3 -14 -2 -31
-11 -17 -8 -40 -17 -52 -20 -11 -2 -24 -9 -29 -16 -4 -7 -8 -9 -8 -5 0 4 -11
-4 -25 -19 -19 -20 -22 -30 -13 -35 7 -4 15 -4 18 0 5 8 60 25 73 23 4 -1 7 2
7 7 0 6 9 8 20 6 11 -2 20 0 20 4 0 4 26 14 58 21 74 18 71 17 77 20 3 1 9 3
14 4 5 0 12 4 16 8 4 4 13 4 20 2 7 -3 16 0 20 5 3 6 11 9 16 5 5 -3 15 -2 22
3 17 13 40 10 45 -4 3 -12 -23 -18 -57 -14 -8 2 -10 -2 -5 -10 4 -7 3 -10 -3
-6 -6 4 -35 0 -64 -8 -30 -9 -61 -17 -69 -19 -8 -3 -15 -5 -15 -6 0 -1 -11 -3
-25 -5 -14 -2 -41 -9 -60 -16 -49 -17 -63 -22 -77 -25 -27 -5 -113 -36 -113
-40 0 -7 55 0 68 9 6 5 12 7 12 4 0 -3 25 3 56 13 31 11 60 17 65 14 5 -3 9 0
9 7 0 7 3 10 6 6 3 -3 23 1 44 8 21 7 41 11 44 8 3 -4 6 -1 6 6 0 7 4 10 9 7
5 -4 20 -2 33 3 14 5 41 12 61 15 20 3 54 12 76 20 25 8 41 10 41 4 0 -7 4 -7
13 0 6 5 28 11 47 13 19 2 40 6 45 10 6 4 23 6 38 5 15 -2 27 0 27 3 0 8 84
12 363 15 146 2 237 -1 237 -7 0 -5 6 -4 14 2 9 7 17 8 20 2 6 -10 31 -9 41 1
7 6 -47 18 -120 25 -98 10 -395 8 -395 -2 0 -5 -5 -3 -10 5 -5 8 -10 10 -10 5
0 -6 -21 -12 -47 -13 -27 -2 -59 -4 -73 -6 -14 -2 -42 -4 -63 -5 -21 0 -36 -4
-33 -9 2 -4 -14 -8 -37 -9 -23 -1 -53 -3 -66 -5 -13 -2 -26 2 -28 7 -2 6 5 11
14 11 10 1 36 4 58 9 22 4 50 8 63 8 12 1 22 3 22 7 0 3 17 5 37 4 21 0 46 3
57 9 14 7 17 6 10 -5 -6 -11 -5 -11 9 1 13 10 17 10 17 1 0 -9 4 -9 13 -2 6 5
48 10 92 12 177 5 235 5 235 0 0 -3 37 -5 83 -5 45 1 87 -2 92 -5 15 -9 38 -6
41 5 5 16 -66 44 -131 50 -56 6 -334 12 -339 8z"/>
<path d="M1786 4853 c-1 -2 -23 -3 -48 -4 -38 -2 -46 -6 -45 -20 1 -10 4 -16
8 -14 6 5 33 -48 27 -53 -1 -2 5 -8 15 -13 9 -6 17 -16 17 -23 0 -8 7 -19 15
-26 10 -8 15 -9 15 -2 0 7 7 9 17 5 10 -4 14 -2 9 5 -3 6 3 14 16 18 13 3 35
15 51 26 15 11 27 16 27 11 0 -4 4 -3 8 2 4 6 27 21 52 34 25 13 54 30 65 38
18 12 17 13 -15 14 -85 3 -232 4 -234 2z"/>
<path d="M2138 4821 c9 -14 27 -42 39 -61 13 -19 27 -41 33 -47 6 -7 7 -13 3
-13 -4 0 -3 -4 3 -8 13 -9 54 -97 54 -116 0 -8 5 -18 10 -21 6 -3 10 -17 10
-30 0 -13 5 -27 10 -30 6 -4 8 -10 6 -14 -3 -4 1 -17 9 -28 10 -15 22 -19 42
-16 15 2 46 6 68 7 39 3 40 4 38 37 0 19 -9 53 -19 74 -9 22 -16 43 -16 48 1
4 -3 7 -8 7 -5 0 -10 6 -10 13 0 17 -64 110 -106 155 -19 20 -34 40 -34 44 0
4 -7 8 -15 8 -8 0 -15 4 -15 9 0 5 -27 9 -59 9 l-60 0 17 -27z"/>
<path d="M1445 4810 c-16 -18 -18 -317 -2 -337 5 -8 6 -13 0 -13 -5 0 -9 -9
-9 -20 0 -11 3 -20 7 -20 3 0 6 -8 6 -17 0 -41 4 -57 11 -48 10 14 52 14 52 1
0 -7 3 -7 8 1 4 6 25 13 47 16 70 8 87 17 82 43 -2 13 0 21 5 18 5 -4 5 2 -1
12 -14 25 -43 142 -44 177 0 15 -4 27 -8 27 -3 0 -9 15 -13 33 -3 17 -14 57
-23 88 l-17 56 -43 -1 c-26 0 -50 -7 -58 -16z"/>
<path d="M1576 4805 c-3 -8 -1 -15 4 -17 6 -2 11 -15 12 -30 1 -16 5 -28 9
-28 4 0 9 -10 12 -22 3 -13 14 -53 24 -89 11 -37 19 -78 19 -92 -1 -14 2 -23
6 -21 4 3 8 -5 9 -18 0 -13 2 -30 4 -38 3 -8 6 -23 8 -33 4 -20 27 -46 27 -31
0 6 20 10 45 10 25 -1 45 3 45 7 0 5 5 5 11 1 18 -11 28 16 17 50 -5 17 -10
37 -11 44 0 6 -5 12 -10 12 -6 0 -8 3 -4 6 3 4 0 19 -9 35 -8 16 -12 29 -10
29 3 0 -10 29 -28 64 -19 36 -32 67 -30 70 2 3 1 4 -3 1 -3 -3 -19 18 -35 45
-16 28 -34 51 -41 51 -6 1 -24 3 -39 4 -16 2 -29 -2 -32 -10z"/>
<path d="M2040 4808 c0 -4 -7 -8 -15 -8 -8 0 -15 -4 -15 -9 0 -5 -8 -11 -17
-14 -25 -8 -97 -50 -105 -62 -5 -7 -8 -7 -8 0 0 6 -5 2 -11 -8 -6 -9 -14 -15
-18 -13 -4 3 -17 -3 -28 -14 -12 -10 -23 -17 -25 -14 -3 2 -5 -3 -5 -11 0 -8
3 -15 7 -15 4 0 18 -34 31 -75 13 -41 27 -75 32 -75 4 0 7 -7 7 -16 0 -13 8
-11 45 10 25 15 45 23 45 19 0 -4 5 0 11 10 5 9 16 17 23 17 8 0 19 7 26 15 7
8 16 12 21 9 5 -3 9 0 9 5 0 6 7 11 15 11 8 0 15 3 15 8 0 4 23 18 51 32 61
30 66 36 46 58 -9 9 -15 19 -14 22 1 3 -16 34 -38 68 -31 47 -45 61 -62 59
-13 -1 -23 -5 -23 -9z"/>
<path d="M1299 4796 c-2 -3 -16 -7 -29 -9 -14 -3 -36 -8 -50 -11 -14 -3 -36
-8 -50 -10 -14 -2 -53 -13 -87 -24 -35 -11 -63 -18 -63 -15 0 3 -7 0 -15 -7
-8 -6 -18 -10 -22 -7 -4 3 -14 -1 -21 -9 -11 -12 -9 -14 8 -14 11 0 21 0 23 1
1 0 19 -7 39 -16 21 -8 41 -14 45 -13 9 2 64 -12 78 -20 9 -6 16 -7 76 -15 24
-4 28 0 34 37 5 23 7 44 6 49 0 4 3 7 8 7 6 0 8 9 6 20 -2 11 0 20 4 20 5 0
11 9 14 20 5 20 4 24 -4 16z"/>
<path d="M1360 4784 c-9 -3 -23 -19 -32 -37 -22 -42 -48 -134 -41 -141 4 -3 2
-6 -3 -6 -5 0 -10 -8 -10 -17 -1 -10 -4 -43 -8 -73 -10 -69 -14 -151 -8 -167
3 -8 16 -11 39 -7 45 7 85 12 100 13 12 1 12 109 -1 129 -4 7 -3 12 2 12 6 0
7 14 2 35 -5 21 -4 38 2 41 5 4 5 10 -1 18 -6 7 -6 18 -1 26 4 7 4 24 0 36 -6
15 -5 26 1 30 6 4 6 11 -2 20 -6 8 -7 14 -2 14 5 0 9 18 9 40 1 41 -5 45 -46
34z"/>
<path d="M837 4678 c-6 -3 -15 -4 -19 -2 -4 3 -8 0 -8 -5 0 -6 -7 -11 -15 -11
-8 0 -15 -6 -15 -14 0 -8 -7 -17 -16 -20 -9 -4 -14 -9 -10 -13 3 -3 -2 -15
-11 -26 -10 -10 -17 -21 -15 -23 1 -2 -4 -17 -11 -32 -15 -27 -37 -93 -36
-102 0 -3 -5 -18 -11 -34 -6 -15 -13 -59 -17 -97 -6 -73 -6 -73 42 -70 23 2
59 9 63 11 1 2 5 3 10 4 30 6 40 25 46 91 8 84 13 119 16 123 1 1 4 11 5 22 1
11 3 21 4 23 2 1 4 11 6 22 3 11 16 49 30 84 14 36 25 68 25 73 0 9 -46 7 -63
-4z"/>
<path d="M925 4654 c-8 -9 -13 -20 -10 -25 4 -5 1 -9 -6 -9 -7 0 -10 -3 -6 -6
3 -4 0 -18 -7 -33 -7 -14 -11 -32 -9 -38 3 -7 1 -13 -4 -13 -4 0 -9 -13 -9
-29 -2 -30 9 -36 107 -55 39 -8 75 -20 87 -29 7 -5 15 -7 19 -4 3 4 11 2 18
-3 6 -5 22 -12 36 -14 13 -3 26 -5 29 -6 3 -2 8 -2 13 -1 4 0 7 -3 7 -8 0 -5
8 -8 17 -7 17 3 21 15 24 86 1 25 6 53 12 64 7 14 6 16 -4 11 -8 -5 -10 -4 -5
3 4 7 9 21 11 32 4 18 -9 26 -37 21 -5 0 -8 4 -8 11 0 6 -3 9 -6 6 -3 -4 -20
-2 -37 3 -18 6 -42 12 -54 15 -12 2 -34 9 -48 14 -14 5 -25 7 -25 4 0 -4 -7 0
-17 7 -9 8 -18 13 -20 12 -1 -2 -4 -3 -5 -2 -28 8 -50 6 -63 -7z"/>
<path d="M2120 4568 c-41 -23 -88 -50 -105 -60 -16 -10 -38 -21 -47 -24 -10
-4 -18 -11 -18 -16 0 -5 -4 -7 -8 -4 -5 3 -24 -9 -43 -26 -19 -16 -26 -25 -16
-18 13 9 17 10 17 1 0 -7 4 -10 9 -7 7 5 94 12 261 20 20 1 41 5 47 9 6 4 14
3 18 -3 9 -15 36 15 32 37 -4 18 -12 40 -27 78 -5 11 -11 28 -14 38 -8 25 -22
21 -106 -25z"/>
<path d="M6753 4485 c0 -8 4 -12 9 -9 5 3 6 10 3 15 -9 13 -12 11 -12 -6z"/>
<path d="M853 4406 c-4 -43 -7 -59 -17 -75 -7 -10 -5 -12 5 -6 10 6 11 5 3 -4
-12 -13 -7 -64 6 -56 4 3 25 7 46 9 38 4 76 10 139 22 17 3 39 7 50 9 11 1 38
6 60 10 22 4 48 8 58 8 23 2 22 14 -3 27 -11 6 -20 8 -20 4 0 -3 -6 -2 -13 4
-7 6 -24 12 -37 14 -14 2 -29 6 -35 9 -5 4 -35 12 -65 20 -30 7 -57 16 -60 19
-3 3 -14 6 -25 7 -11 1 -36 4 -55 6 -33 4 -35 3 -37 -27z"/>
<path d="M2405 4412 c-3 -4 -163 -14 -237 -16 -32 0 -58 -3 -58 -6 0 -3 -28
-7 -62 -8 -35 -1 -79 -3 -98 -6 -19 -2 -54 -5 -77 -7 -24 -2 -43 -7 -43 -12 0
-5 -6 -4 -13 2 -8 6 -16 9 -19 6 -2 -3 -27 -7 -54 -9 -27 -3 -49 -5 -49 -6 0
-1 -13 -3 -30 -5 -30 -2 -123 -13 -180 -21 -16 -3 -41 -6 -55 -7 -14 -1 -28
-6 -32 -12 -5 -6 -8 -5 -8 3 0 8 -5 10 -12 5 -7 -4 -22 -8 -33 -9 -11 0 -45
-4 -75 -9 -73 -11 -74 -12 -80 -14 -3 -1 -21 -4 -40 -6 -19 -2 -53 -6 -75 -10
-22 -3 -53 -8 -70 -10 -29 -5 -65 -12 -75 -15 -3 -1 -20 -2 -37 -2 -18 0 -33
-4 -33 -9 0 -5 -6 -6 -14 -3 -8 3 -24 0 -36 -6 -17 -9 -21 -9 -15 0 5 9 3 9
-11 2 -11 -5 -39 -12 -64 -15 -25 -3 -52 -8 -60 -11 -8 -2 -35 -7 -59 -10 -55
-7 -71 -20 -65 -53 7 -37 44 -85 60 -79 7 3 16 1 19 -5 4 -5 -1 -12 -9 -15 -9
-3 -16 -10 -16 -15 0 -6 -10 -23 -21 -39 -12 -16 -19 -35 -16 -44 7 -16 96
-47 112 -38 5 3 18 7 30 8 37 4 71 22 103 54 18 17 32 27 32 22 0 -5 10 -13
23 -17 12 -4 29 -9 37 -12 28 -10 95 -6 125 7 17 7 33 13 38 12 4 -1 7 2 7 7
0 5 13 23 29 40 29 31 51 40 51 21 0 -5 7 -10 15 -10 8 0 15 -4 15 -9 0 -5 17
-12 38 -17 45 -9 122 -11 122 -3 0 3 16 14 35 25 19 10 35 24 35 31 0 7 5 13
10 13 6 0 10 6 10 14 0 9 7 12 20 9 11 -3 20 -9 20 -14 0 -5 7 -9 15 -9 8 0
15 -3 15 -8 0 -18 111 -48 125 -34 3 3 15 7 26 9 11 2 25 8 32 13 48 40 65 59
60 64 -4 3 -2 6 4 6 5 0 13 -3 17 -7 4 -5 11 -8 14 -9 4 0 20 -6 35 -12 74
-31 124 -21 186 37 35 33 46 37 56 21 4 -6 11 -8 16 -5 5 4 9 2 9 -3 0 -22
107 -38 153 -23 18 6 49 27 69 46 22 21 39 31 43 25 11 -18 82 -49 122 -54 50
-7 117 26 137 68 14 28 13 32 -2 40 -40 23 -46 36 -22 56 24 21 32 82 12 102
-10 10 -168 19 -177 10z"/>
<path d="M2579 4075 c-5 -5 -112 -18 -151 -19 -16 -1 -28 -3 -28 -6 0 -3 -10
-6 -22 -7 -23 -1 -103 -11 -148 -18 -14 -2 -41 -6 -60 -9 -19 -2 -48 -7 -65
-9 -33 -6 -126 -19 -165 -23 -14 -1 -25 -3 -25 -4 0 -1 -13 -3 -30 -5 -16 -2
-48 -7 -70 -10 -45 -7 -89 -13 -137 -19 -18 -2 -40 -7 -48 -10 -14 -5 -51 -11
-125 -21 -16 -2 -30 -4 -30 -5 0 -2 -13 -4 -30 -5 -16 -2 -32 -4 -35 -5 -6 -4
-69 -14 -150 -25 -3 0 -9 -3 -15 -6 -5 -4 -19 -5 -29 -3 -11 1 -24 0 -30 -3
-11 -7 -56 -15 -93 -16 -13 -1 -23 -4 -23 -8 0 -3 -10 -5 -23 -4 -13 2 -40 -3
-60 -10 -21 -7 -37 -9 -37 -3 0 5 -6 6 -12 1 -14 -8 -14 -8 -78 -17 -25 -4
-52 -9 -60 -11 -26 -7 -94 -17 -117 -18 -13 -1 -23 -5 -23 -10 0 -4 -4 -5 -10
-2 -12 8 -52 -13 -65 -34 -13 -21 -15 -50 -3 -57 4 -3 5 -10 2 -16 -6 -10 39
-7 126 8 14 3 39 6 57 9 18 2 40 6 50 9 10 3 36 8 58 11 52 8 83 13 120 19 17
3 46 8 65 10 19 3 44 7 55 10 57 11 173 29 193 30 12 0 22 3 22 7 0 4 17 6 38
5 20 -2 42 1 47 5 9 6 47 13 125 24 44 6 138 21 185 31 17 3 46 7 65 9 19 2
35 4 35 5 0 1 11 4 25 5 14 2 48 7 75 11 28 4 68 8 90 8 22 1 42 4 45 8 5 6
91 20 138 21 12 1 22 3 22 7 0 3 10 5 23 6 24 1 110 12 143 18 12 2 45 7 75
11 134 16 233 36 240 47 5 7 4 14 0 16 -5 2 -7 11 -4 22 6 24 -31 47 -78 48
-20 1 -38 -1 -40 -3z"/>
<path d="M2726 3842 c-3 -2 -12 -5 -23 -7 -10 -2 -19 -4 -20 -5 -2 -2 -6 -3
-10 -4 -19 -4 -53 -32 -53 -43 0 -6 -5 -13 -11 -15 -6 -2 -12 -21 -13 -43 -2
-42 17 -68 74 -101 16 -10 30 -24 30 -30 0 -21 -29 -43 -50 -39 -11 2 -20 -1
-20 -6 0 -6 -4 -7 -10 -4 -18 11 -10 -15 11 -36 12 -12 24 -17 28 -13 3 5 20
10 36 11 44 3 102 32 121 60 31 48 -6 129 -66 148 -26 8 -34 47 -13 63 10 7
23 10 29 8 18 -7 32 16 25 39 -4 14 -15 20 -34 20 -15 1 -29 -1 -31 -3z"/>
<path d="M2403 3790 c-44 -21 -82 -56 -95 -88 -14 -35 -19 -110 -7 -118 5 -3
7 -10 3 -15 -9 -15 23 -57 59 -79 41 -26 102 -25 164 0 42 18 88 60 65 60 -4
0 -7 20 -7 45 1 25 -2 48 -7 51 -4 3 -6 10 -2 15 3 6 -11 8 -35 7 -23 -2 -41
-6 -41 -10 0 -5 -7 -8 -15 -8 -13 0 -14 -9 -9 -47 3 -27 8 -51 10 -54 2 -4 -3
-9 -10 -12 -16 -6 -40 16 -29 26 3 4 0 7 -8 7 -16 0 -19 16 -20 95 0 55 23 85
66 85 25 0 41 28 25 44 -15 15 -71 13 -107 -4z"/>
<path d="M2214 3757 c-21 -12 -23 -32 -10 -99 2 -16 2 -28 -2 -28 -4 0 -31 25
-60 56 -50 53 -68 62 -102 53 -24 -6 -38 -40 -30 -68 4 -14 6 -34 4 -43 -1
-10 2 -18 8 -18 6 0 8 -6 5 -13 -2 -7 0 -37 5 -67 5 -30 9 -65 10 -77 1 -26
15 -40 40 -40 19 0 32 23 21 40 -4 6 -8 23 -9 37 -1 14 -5 38 -9 54 -6 28 -4
27 40 -19 25 -27 45 -51 45 -54 0 -4 14 -15 30 -24 17 -10 30 -14 30 -8 0 5
12 8 26 6 l26 -2 -7 91 c-8 112 -8 109 -20 118 -6 5 -4 8 5 8 13 0 13 1 0 10
-11 7 -11 10 -2 10 7 0 10 5 7 10 -4 6 -9 23 -11 38 -7 37 -15 43 -40 29z"/>
<path d="M5854 3741 c-5 -4 -27 -13 -49 -20 -48 -16 -96 -58 -88 -77 3 -8 1
-14 -5 -14 -5 0 -9 -10 -9 -22 -1 -41 -3 -44 -25 -44 -64 0 -114 -49 -110
-105 1 -20 -6 -29 -36 -44 -20 -10 -40 -18 -44 -17 -5 1 -8 -5 -8 -14 0 -8 -4
-13 -9 -10 -11 7 -33 -43 -36 -82 -9 -110 148 -219 315 -220 66 0 72 2 105 34
42 40 47 70 23 147 -8 27 -8 41 -1 45 39 25 49 120 19 167 -9 14 -13 25 -9 25
5 0 1 5 -7 10 -12 7 -10 11 10 19 14 5 21 10 16 10 -6 1 -1 7 9 15 26 19 25
105 -2 137 -6 8 -11 17 -10 21 3 12 -40 47 -49 39z"/>
<path d="M1949 3726 c-2 -3 -16 -7 -31 -10 -14 -2 -35 -9 -45 -14 -20 -11 -28
-48 -12 -57 5 -4 7 -10 4 -15 -5 -8 10 -133 21 -182 3 -13 6 -31 6 -40 -1 -14
7 -18 31 -18 55 0 81 20 82 63 0 20 -2 37 -5 37 -4 0 -7 12 -7 28 -1 64 -12
159 -22 185 -11 27 -14 31 -22 23z"/>
<path d="M1626 3673 c-96 -20 -101 -28 -79 -138 3 -16 7 -48 9 -70 13 -123 16
-128 73 -119 18 3 45 7 60 9 14 2 27 4 29 6 1 1 5 2 10 3 40 9 96 59 111 99
13 36 7 110 -13 150 -33 66 -89 83 -200 60z m73 -57 c15 -18 22 -49 26 -110 4
-55 -11 -96 -34 -96 -12 0 -16 12 -18 53 -2 45 -8 100 -14 133 -6 34 18 47 40
20z"/>
<path d="M1347 3634 c-2 -2 -19 -6 -38 -8 -47 -6 -85 -22 -91 -38 -6 -16 -3
-83 5 -95 3 -5 7 -29 8 -54 2 -24 7 -47 13 -51 7 -5 6 -8 -2 -8 -8 0 -10 -5
-5 -12 4 -7 9 -22 10 -33 6 -37 12 -44 35 -40 13 2 37 6 53 8 75 12 104 20 99
28 -3 5 1 9 9 9 18 0 50 29 67 59 16 31 22 112 8 128 -5 7 -7 17 -3 22 6 11
-61 80 -80 82 -48 4 -85 5 -88 3z m39 -81 c23 -49 26 -169 4 -183 -21 -13 -34
4 -36 48 -1 20 -5 61 -9 90 -12 86 9 109 41 45z"/>
<path d="M1137 3603 c-3 -2 -20 -7 -39 -9 -87 -13 -121 -22 -129 -35 -4 -7 -5
-17 -3 -23 4 -12 35 -220 38 -251 1 -17 8 -20 41 -19 22 0 60 4 85 9 25 4 55
8 67 9 11 0 19 4 17 8 -2 4 0 9 5 12 5 4 8 14 7 24 -3 17 -9 18 -77 7 -37 -6
-37 -6 -41 34 -5 53 -1 61 31 61 14 0 37 7 49 16 22 15 22 17 7 34 -12 13 -23
17 -38 11 -52 -18 -81 7 -57 48 8 14 9 14 10 1 0 -10 3 -11 8 -3 4 6 20 13 36
15 44 5 43 48 -1 54 -6 1 -14 0 -16 -3z"/>
<path d="M889 3558 c-1 -4 -2 -16 -2 -25 -1 -10 -6 -21 -12 -25 -6 -5 -5 -8 3
-8 10 0 10 -5 1 -21 -8 -16 -8 -20 1 -14 9 5 10 2 3 -11 -5 -11 -9 -36 -8 -56
0 -21 -4 -38 -10 -38 -6 0 -5 -3 1 -8 9 -5 8 -10 -1 -19 -10 -9 -17 3 -35 60
-13 40 -23 78 -23 85 0 6 -4 12 -9 12 -5 0 -7 3 -5 8 3 4 1 17 -4 30 -7 18
-14 21 -38 17 -62 -11 -81 -23 -79 -50 1 -14 6 -25 11 -25 5 0 7 -7 3 -15 -3
-8 -2 -15 3 -15 18 0 31 -123 15 -139 -6 -6 -15 4 -18 21 -2 7 -8 26 -15 41
-6 16 -9 33 -5 38 3 5 1 9 -4 9 -8 0 -25 53 -26 85 -2 27 -32 34 -80 18 -42
-14 -46 -18 -42 -42 9 -47 18 -71 28 -71 5 0 7 -4 3 -10 -9 -14 75 -180 92
-180 8 0 12 -4 9 -8 -4 -7 33 -8 42 -2 3 3 19 7 32 9 12 1 35 51 31 66 -1 6 6
1 17 -10 11 -11 18 -23 16 -27 -8 -14 36 -19 75 -8 39 10 51 26 57 75 1 11 5
31 9 45 9 38 18 102 18 133 -1 15 4 27 11 27 6 0 4 5 -4 10 -10 7 -11 10 -2
10 10 0 10 4 0 20 -12 19 -57 25 -59 8z"/>
<path d="M2835 3420 c-11 -3 -30 -5 -42 -4 -13 1 -23 -1 -23 -5 0 -3 -17 -7
-38 -8 -42 -2 -113 -11 -152 -19 -14 -2 -45 -7 -70 -10 -25 -3 -56 -7 -70 -9
-14 -2 -38 -5 -55 -8 -16 -3 -52 -8 -80 -12 -27 -3 -64 -8 -81 -11 -42 -6
-100 -14 -154 -20 -52 -6 -78 -30 -75 -71 2 -37 15 -64 26 -57 10 6 69 15 117
17 17 1 32 5 32 8 0 4 12 7 28 7 15 0 45 3 67 7 92 13 112 16 145 19 19 2 35
5 35 6 0 2 16 4 35 6 19 1 46 5 60 8 56 11 107 18 133 19 15 0 27 5 27 11 0 6
5 4 10 -4 5 -8 10 -10 10 -5 0 6 12 11 28 12 15 1 39 4 54 7 16 2 47 7 70 11
24 4 58 9 76 11 44 4 50 9 47 43 -4 47 -26 62 -87 60 -30 -1 -62 -5 -73 -9z"/>
<path d="M1611 3268 c-13 -4 -29 -7 -35 -5 -6 2 -16 -1 -22 -7 -13 -13 -16
-183 -4 -206 13 -25 110 -27 139 -3 12 10 23 25 24 33 2 8 7 21 11 29 6 8 5
12 0 8 -16 -10 -32 37 -21 64 26 64 -25 113 -92 87z m32 -88 c-3 -11 -11 -16
-20 -13 -8 3 -12 12 -9 20 3 8 6 19 6 25 0 7 5 6 14 -1 8 -7 12 -20 9 -31z m3
-75 c10 -8 14 -15 7 -15 -6 0 -18 -3 -27 -6 -12 -4 -16 0 -16 15 0 25 9 26 36
6z"/>
<path d="M1760 3272 c-36 -11 -39 -31 -13 -89 14 -31 25 -70 25 -87 -2 -47 7
-66 31 -66 35 0 48 14 51 56 2 21 15 65 30 96 32 70 32 84 3 90 -24 5 -40 -7
-45 -32 -6 -28 -17 -29 -29 -4 -7 15 -7 22 -1 17 6 -3 8 -1 5 4 -8 13 -38 21
-57 15z"/>
<path d="M2974 3249 c-3 -5 -11 -6 -17 -3 -7 4 -9 4 -5 -1 4 -4 0 -14 -10 -22
-9 -8 -11 -11 -3 -7 10 5 12 3 5 -7 -15 -25 -13 -38 13 -63 17 -18 32 -23 51
-20 31 6 52 22 52 39 0 8 6 16 13 18 9 4 9 6 0 6 -7 1 -10 7 -7 14 11 29 -76
72 -92 46z"/>
<path d="M2743 3217 c-29 -13 -45 -51 -33 -81 10 -26 70 -65 70 -46 0 6 4 9 9
5 13 -8 50 42 46 63 -2 9 -4 25 -4 35 -1 10 -5 15 -11 12 -5 -3 -10 -2 -10 3
0 14 -43 20 -67 9z"/>
<path d="M1240 3203 c0 -5 -6 -10 -12 -10 -7 0 -33 -3 -58 -8 -25 -4 -55 -8
-67 -8 -13 -1 -23 -3 -23 -6 0 -4 -17 -7 -38 -8 -20 0 -47 -3 -58 -6 -12 -3
-37 -8 -55 -11 -19 -3 -45 -8 -59 -11 -14 -2 -41 -7 -60 -9 -19 -3 -46 -8 -60
-11 -56 -12 -100 -20 -170 -29 -99 -14 -125 -25 -137 -55 -8 -23 -7 -33 6 -50
18 -24 12 -24 145 0 33 6 68 11 78 12 10 1 18 5 18 10 0 5 6 4 13 -2 8 -6 17
-7 21 -3 4 4 20 8 34 8 15 1 27 3 27 4 0 1 9 3 20 5 63 9 103 16 125 21 14 3
41 8 60 10 55 7 79 12 90 19 5 3 10 1 10 -6 0 -8 4 -8 13 -1 6 5 28 11 47 13
19 2 39 5 44 7 5 3 23 6 40 8 17 1 47 6 66 10 19 3 46 7 60 8 33 3 49 13 46
29 -10 49 -21 68 -40 72 -24 6 -84 1 -93 -9 -3 -3 -12 -1 -20 5 -7 6 -13 7
-13 2z"/>
<path d="M2493 3170 c-40 -37 -25 -94 29 -113 18 -6 69 15 70 29 0 5 4 18 8
29 19 50 -66 94 -107 55z"/>
<path d="M2292 3152 c-14 -2 -29 -16 -39 -38 -14 -29 -15 -37 -3 -59 7 -14 21
-25 30 -25 9 0 21 -5 27 -11 14 -14 76 48 69 68 -3 8 -6 21 -6 29 0 18 -49 41
-78 36z"/>
<path d="M2072 3119 c-41 -16 -55 -37 -49 -76 7 -44 21 -54 67 -51 25 2 38 10
49 29 28 51 -17 116 -67 98z"/>
<path d="M5445 3103 c-30 -33 -120 -66 -247 -88 -17 -3 -39 -10 -49 -16 -11
-5 -19 -8 -19 -5 0 3 -15 0 -32 -5 -18 -6 -40 -12 -48 -14 -53 -15 -110 -39
-110 -46 0 -5 -7 -6 -15 -3 -8 4 -15 1 -15 -7 0 -7 -3 -9 -6 -6 -11 10 -53
-45 -63 -81 -13 -45 -6 -71 27 -101 31 -30 78 -101 65 -101 -4 0 -3 -4 2 -8
17 -12 36 -52 30 -62 -4 -6 -2 -10 3 -10 5 0 18 12 27 28 31 49 99 104 170
138 39 18 79 35 90 37 28 6 54 16 96 38 20 10 39 16 43 12 3 -3 6 -2 6 4 0 6
18 22 41 37 22 15 48 36 57 46 18 22 32 26 32 9 0 -5 -6 -7 -12 -3 -10 6 -10
4 -2 -7 6 -8 11 -34 10 -59 -1 -25 3 -51 8 -58 5 -7 6 -15 4 -18 -3 -3 0 -25
7 -49 8 -24 11 -46 8 -49 -4 -3 -1 -6 5 -6 7 0 11 -3 10 -7 -1 -5 3 -23 9 -41
7 -18 12 -34 13 -37 0 -3 9 -21 21 -41 11 -20 18 -39 15 -42 -3 -3 2 -10 11
-17 22 -16 24 -135 2 -161 -12 -16 -12 -17 1 -9 13 8 13 7 1 -8 -18 -22 -2
-22 47 -1 42 19 58 24 87 27 11 2 25 6 32 10 6 4 14 3 17 -1 9 -14 56 -5 78
15 47 42 52 82 24 188 -1 6 -10 27 -19 49 -9 21 -17 45 -17 52 0 8 -5 14 -12
14 -6 0 -9 3 -5 6 3 3 -4 23 -16 43 -12 20 -29 50 -37 66 -8 17 -17 32 -20 35
-3 3 -10 14 -16 25 -26 48 -39 70 -44 75 -15 14 -27 60 -26 98 1 36 -2 42 -20
42 -11 0 -24 3 -27 7 -4 3 -17 7 -30 9 -26 3 -71 22 -132 57 l-41 23 -19 -23z"/>
<path d="M1417 3022 c-34 -7 -56 -38 -52 -72 7 -51 26 -61 103 -52 7 1 10 7 7
12 -3 6 -1 10 4 10 6 0 11 17 11 38 0 31 -5 41 -27 53 -16 9 -36 14 -46 11z"/>
<path d="M3129 2968 c-6 -24 -12 -48 -12 -55 0 -7 -4 -10 -8 -7 -4 2 -9 -1
-11 -7 -2 -6 -12 0 -23 12 -11 12 -15 20 -9 16 6 -4 4 9 -5 29 -15 33 -18 34
-58 30 -23 -3 -51 -10 -62 -16 -20 -10 -20 -12 -3 -43 9 -18 30 -49 46 -70 26
-33 34 -61 40 -132 1 -17 8 -20 45 -19 52 1 63 15 58 72 -3 29 2 54 14 77 11
19 16 35 12 35 -5 0 -3 4 3 8 14 8 44 94 37 105 -2 4 -15 7 -28 7 -20 0 -26
-8 -36 -42z"/>
<path d="M1163 2973 c-13 -8 -23 -22 -23 -30 0 -8 -5 -11 -12 -7 -7 5 -8 3 -3
-7 5 -7 10 -21 10 -30 4 -47 79 -60 113 -21 11 13 19 28 18 35 -6 35 -19 55
-42 65 -31 15 -34 15 -61 -5z"/>
<path d="M2863 2963 c4 -3 3 -11 -1 -17 -5 -6 -14 -30 -22 -53 -7 -24 -16 -43
-20 -43 -4 0 -18 24 -31 53 l-24 53 -37 -6 c-21 -4 -45 -13 -55 -21 -14 -12
-16 -12 -8 0 5 10 4 12 -3 7 -22 -13 -13 -35 62 -140 10 -15 20 -47 21 -71 2
-24 6 -48 9 -54 9 -14 56 -14 56 0 0 5 5 7 10 4 23 -14 37 15 34 70 -1 38 2
60 12 70 8 8 14 16 14 17 -1 2 4 17 11 33 14 35 19 51 24 83 3 19 -1 22 -28
22 -16 0 -27 -3 -24 -7z"/>
<path d="M915 2920 c-10 -11 -14 -20 -10 -20 5 0 4 -5 -2 -11 -15 -15 8 -63
32 -73 44 -17 95 15 95 59 0 59 -76 89 -115 45z"/>
<path d="M2567 2924 c-3 -3 -94 -17 -114 -17 -7 0 -14 -7 -14 -16 -3 -30 0
-96 5 -141 3 -25 6 -62 7 -82 2 -28 8 -39 22 -44 11 -4 23 -1 28 7 7 11 9 11
9 1 0 -9 5 -10 18 -4 9 5 27 8 40 7 13 -1 25 2 28 6 2 4 13 6 24 4 11 -2 20 0
20 6 0 5 6 9 14 9 9 0 12 7 9 20 -5 18 -11 20 -40 15 -20 -3 -39 -8 -44 -10
-9 -6 -25 23 -23 45 2 30 15 45 40 47 26 1 70 33 46 33 -7 0 -9 7 -5 18 5 13
4 15 -8 6 -8 -5 -29 -11 -47 -13 -31 -2 -33 -1 -30 26 2 16 9 29 18 29 8 1 20
3 25 4 6 1 17 2 25 1 10 -1 16 8 18 23 2 23 -2 25 -33 24 -19 -1 -36 -2 -38
-4z"/>
<path d="M703 2890 c-24 -14 -30 -25 -29 -49 1 -17 9 -40 19 -51 20 -24 75
-27 83 -5 4 8 11 12 17 8 6 -4 8 2 5 15 -4 12 -2 22 3 22 14 0 11 17 -6 33 -8
8 -12 17 -9 20 3 2 -8 9 -24 15 -24 8 -36 7 -59 -8z"/>
<path d="M2247 2883 c-2 -1 -18 -5 -37 -8 -65 -11 -79 -28 -78 -90 1 -30 4
-55 7 -55 3 0 7 -32 8 -72 3 -75 10 -87 46 -83 101 12 139 26 178 64 38 38 50
72 44 125 -9 87 -41 119 -123 121 -24 0 -44 -1 -45 -2z m42 -65 c15 -15 18
-25 10 -34 -6 -8 -7 -14 0 -18 16 -10 5 -108 -13 -118 -27 -15 -30 -10 -32 52
-2 33 -6 65 -9 70 -3 6 0 10 7 10 8 0 9 3 3 8 -17 12 -8 50 12 52 1 0 11 -10
22 -22z"/>
<path d="M469 2843 c-8 -10 -16 -30 -17 -45 -6 -58 83 -91 115 -41 16 24 25
76 12 68 -4 -3 -10 4 -14 15 -8 26 -75 28 -96 3z"/>
<path d="M1955 2829 c-22 -5 -56 -11 -75 -15 -19 -3 -41 -11 -49 -17 -12 -10
-13 -9 -7 1 7 11 4 12 -11 3 -11 -6 -23 -8 -25 -5 -3 3 -8 -2 -11 -11 -4 -8
-2 -15 3 -15 6 0 10 -7 10 -15 0 -11 5 -12 23 -6 32 13 42 3 44 -44 3 -79 12
-166 18 -176 4 -5 10 -7 14 -5 4 3 20 7 36 10 15 3 33 10 39 16 10 10 11 81 2
183 -4 41 -2 47 14 47 22 0 52 28 47 43 -4 14 -23 15 -72 6z"/>
<path d="M5444 2799 c-21 -12 -41 -25 -42 -30 -2 -5 -7 -7 -12 -4 -5 3 -14 0
-22 -7 -7 -7 -22 -15 -33 -16 -11 -2 -23 -9 -27 -15 -4 -7 -8 -8 -8 -3 0 5 -6
4 -12 -1 -7 -6 -23 -9 -36 -8 -12 1 -27 -4 -33 -12 -6 -7 -20 -13 -30 -13 -10
0 -21 -5 -24 -10 -4 -6 -11 -8 -16 -5 -5 4 -9 1 -9 -4 0 -6 -5 -11 -11 -11 -7
0 -32 -20 -57 -45 -24 -25 -41 -45 -37 -45 4 0 1 -7 -6 -16 -18 -22 -20 -43
-7 -89 14 -50 14 -47 21 -65 28 -71 95 -280 89 -280 -4 0 0 -4 8 -10 32 -20
-1 -20 -64 0 -36 12 -72 23 -79 24 -6 2 -19 6 -27 9 -8 4 -26 8 -40 10 -14 2
-33 7 -43 12 -10 4 -20 5 -23 2 -4 -3 -17 -1 -31 4 -33 12 -161 23 -248 20
-136 -4 -163 -6 -158 -13 2 -5 -6 -8 -18 -8 -25 0 -123 -32 -127 -42 -2 -4 -9
-5 -16 -2 -8 3 -22 -3 -31 -13 -10 -10 -21 -17 -24 -17 -3 1 -17 -3 -31 -9
-14 -6 -28 -10 -32 -9 -5 1 -8 -3 -8 -9 0 -5 -4 -7 -10 -4 -5 3 -10 2 -10 -3
0 -5 -8 -13 -17 -16 -25 -9 -80 -41 -98 -56 -8 -7 -15 -10 -15 -7 0 3 -12 -5
-26 -18 -15 -14 -31 -25 -35 -25 -9 0 -45 -28 -81 -62 -10 -10 -18 -15 -18
-10 -1 4 -10 -4 -20 -17 -11 -13 -20 -20 -20 -17 0 4 -40 -32 -89 -81 -68 -67
-92 -85 -100 -76 -6 7 -11 16 -11 20 0 4 -17 19 -37 33 -27 18 -49 25 -89 25
-30 0 -54 -3 -54 -8 0 -4 -3 -6 -7 -5 -12 3 -54 -22 -80 -48 -13 -13 -22 -24
-20 -24 3 0 -1 -16 -7 -35 -16 -47 -12 -108 11 -165 14 -34 86 -98 118 -106
14 -3 25 -9 25 -13 0 -7 14 -9 85 -11 34 0 80 5 80 10 0 1 9 3 20 5 11 2 21 9
23 15 2 5 8 8 13 4 5 -3 9 0 9 6 0 6 4 8 10 5 5 -3 21 6 35 21 14 15 25 24 25
21 0 -9 50 44 70 73 8 13 20 28 25 34 18 20 55 75 55 80 0 3 8 15 18 26 9 11
15 22 12 24 -3 2 6 13 20 25 14 11 21 20 17 21 -4 0 4 12 18 28 14 15 28 35
31 45 3 9 10 15 15 12 5 -4 9 -1 9 6 0 20 130 132 130 113 0 -5 4 -3 8 4 5 7
17 14 28 16 10 3 37 8 59 13 48 11 365 4 365 -7 0 -3 26 -7 57 -8 32 -1 61 -8
65 -15 6 -9 8 -9 8 1 0 7 5 10 11 6 6 -3 27 -8 47 -10 83 -9 120 -13 187 -20
44 -4 76 -13 86 -23 8 -9 30 -27 48 -41 35 -27 63 -50 99 -81 12 -10 26 -19
31 -19 5 0 11 -3 13 -7 6 -14 106 -93 118 -93 6 0 8 -4 5 -10 -3 -5 -1 -10 5
-10 9 0 50 -33 102 -82 10 -10 20 -18 22 -18 4 0 90 -88 121 -123 26 -29 53
-74 57 -92 1 -11 6 -22 10 -25 9 -7 26 -160 18 -165 -4 -2 -8 -25 -8 -51 -1
-25 -5 -50 -8 -55 -3 -6 -8 -24 -10 -42 -2 -18 -6 -39 -8 -47 -1 -8 -6 -33
-11 -55 -4 -22 -10 -44 -13 -49 -9 -17 -21 -196 -13 -211 3 -5 6 -19 6 -30 1
-11 9 -37 18 -59 9 -21 17 -42 17 -47 0 -5 5 -9 10 -9 6 0 10 -5 10 -10 0 -15
48 -57 90 -79 99 -52 195 -42 273 30 57 53 68 91 55 197 -1 7 -20 32 -42 56
-37 41 -46 45 -98 50 -40 4 -58 2 -58 -6 0 -6 -3 -8 -7 -4 -4 4 -8 62 -9 129
-1 67 -3 122 -4 122 -1 0 -3 25 -4 55 -1 30 -4 60 -7 65 -4 6 -5 20 -4 32 1
13 -2 23 -6 23 -4 0 -8 8 -7 18 0 23 -13 95 -20 107 -3 5 -7 22 -9 38 -2 15
-7 37 -13 47 -5 10 -10 30 -10 44 0 13 -4 26 -10 28 -5 2 -11 12 -13 23 -6 28
-16 55 -35 90 -9 17 -15 30 -14 30 1 0 -1 10 -4 23 -4 12 -10 22 -15 22 -5 0
-9 5 -9 11 0 13 -49 85 -83 121 -14 15 -22 29 -19 32 3 3 -2 6 -11 6 -8 0 -19
9 -22 20 -3 11 -10 20 -14 20 -4 0 -20 13 -37 28 -54 51 -132 112 -143 112 -6
0 -11 5 -11 11 0 5 -4 7 -10 4 -5 -3 -10 -1 -10 5 0 6 -8 14 -17 18 -30 12
-118 66 -121 74 -2 4 -12 8 -22 8 -10 0 -28 8 -41 19 l-23 18 40 13 c21 7 54
22 72 32 19 10 31 14 27 8 -4 -6 8 -2 27 10 18 11 41 20 51 20 9 0 17 4 17 10
0 5 7 7 15 4 8 -4 15 -1 15 5 0 6 3 10 8 9 4 -1 20 4 35 10 16 7 35 12 43 12
8 0 14 5 14 11 0 5 4 8 9 5 11 -7 56 45 56 64 0 8 3 17 7 20 25 18 11 121 -29
210 -3 8 -7 17 -8 20 0 3 -9 20 -18 38 -10 17 -15 32 -11 32 4 0 1 7 -6 15 -7
8 -9 15 -5 15 4 0 2 6 -4 13 -6 8 -8 17 -4 20 3 4 2 7 -4 7 -5 0 -10 6 -11 13
-1 22 -14 112 -16 114 -1 2 -20 -7 -42 -18z"/>
<path d="M4533 2800 c-48 -11 -97 -36 -132 -69 -16 -15 -33 -26 -36 -23 -3 3
-5 -2 -5 -12 0 -9 -4 -14 -10 -11 -5 3 -10 2 -10 -3 0 -5 -11 -22 -25 -38 -15
-16 -33 -41 -43 -56 -9 -16 -19 -28 -23 -28 -4 0 -12 -13 -19 -30 -7 -16 -16
-30 -20 -30 -4 0 -13 -13 -20 -30 -7 -16 -17 -30 -22 -30 -5 0 -7 -4 -4 -9 4
-5 3 -11 -1 -13 -5 -1 -34 -41 -65 -88 -32 -47 -68 -96 -81 -110 -30 -33 -105
-72 -113 -59 -3 6 -11 8 -17 6 -12 -4 -47 29 -47 45 0 4 7 8 16 8 8 0 13 4 10
8 -3 5 5 15 18 22 36 19 68 92 60 134 -6 34 -46 86 -66 86 -5 0 -7 4 -4 8 7
11 -59 17 -120 10 -41 -4 -125 -118 -139 -187 -4 -24 -8 -84 -5 -96 1 -5 3
-14 4 -20 7 -41 19 -75 27 -75 6 0 8 -4 5 -9 -3 -5 1 -11 9 -15 8 -3 15 -10
15 -16 0 -10 40 -55 50 -55 3 -1 21 -9 40 -20 42 -22 52 -25 106 -26 74 -1
140 45 324 231 74 74 151 145 171 156 36 21 91 24 97 4 5 -13 72 -94 72 -86 0
4 10 0 23 -8 12 -9 44 -17 70 -20 25 -2 51 -7 56 -10 5 -4 12 -2 15 3 3 5 22
12 41 15 19 4 35 11 35 17 0 6 3 8 8 6 4 -3 24 13 45 34 21 22 34 39 31 39 -4
0 -1 8 8 18 22 26 39 72 32 84 -4 6 -3 8 2 5 6 -3 10 16 11 44 0 27 -2 49 -6
49 -3 0 -7 13 -8 29 -4 64 -89 164 -170 202 -50 23 -133 31 -190 19z"/>
<path d="M1689 2792 c-20 -6 -49 -33 -45 -41 4 -6 11 -64 22 -181 3 -36 10
-68 16 -71 5 -4 29 -1 51 6 l42 12 -2 59 c0 33 -3 96 -5 140 l-3 81 -31 0
c-17 -1 -38 -3 -45 -5z"/>
<path d="M1566 2772 c-4 -4 -11 -7 -14 -7 -39 -3 -48 -16 -45 -63 3 -26 4 -56
4 -67 0 -10 5 -25 11 -32 7 -9 7 -13 0 -13 -6 0 -9 -6 -6 -13 5 -14 11 -53 13
-91 1 -16 6 -18 42 -12 52 8 65 22 62 66 -6 116 -13 197 -16 214 -4 19 -38 32
-51 18z"/>
<path d="M1275 2718 c-55 -20 -63 -29 -59 -66 8 -67 16 -150 18 -178 4 -51 25
-65 64 -41 7 5 12 3 12 -5 0 -8 3 -9 8 -3 4 6 16 10 27 10 11 -1 27 2 35 6 8
4 29 12 45 18 38 14 67 52 72 91 2 21 -4 34 -23 49 -15 12 -31 18 -36 15 -6
-4 -2 5 7 20 10 14 21 26 25 26 15 0 -3 52 -24 65 -28 18 -110 15 -171 -7z
m89 -44 c10 -27 7 -43 -12 -53 -17 -9 -19 -6 -20 30 -2 40 19 56 32 23z m10
-115 c-3 -5 -1 -9 5 -9 13 0 3 -53 -12 -62 -21 -14 -24 -9 -25 41 -1 44 0 49
18 44 11 -3 17 -9 14 -14z"/>
<path d="M1135 2691 c-11 -5 -23 -7 -26 -5 -8 4 -45 -36 -42 -45 5 -11 -18
-71 -27 -71 -5 0 -12 9 -15 20 -3 11 -10 20 -14 20 -4 0 -13 12 -20 26 -10 24
-16 26 -48 21 -44 -8 -56 -18 -54 -49 1 -28 8 -73 10 -73 2 0 8 -73 13 -152 1
-13 4 -15 36 -17 13 -1 17 8 18 39 1 22 -3 46 -9 53 -6 8 -5 12 4 12 11 0 11
2 -1 10 -11 7 -11 10 -2 10 7 0 22 -16 33 -35 12 -19 23 -35 26 -35 17 0 43
24 43 40 0 10 5 22 10 25 6 4 8 11 5 16 -4 5 -1 9 4 9 6 0 12 -15 13 -32 0
-18 2 -37 3 -43 2 -5 3 -17 4 -26 1 -15 7 -15 44 -7 23 6 46 15 51 19 14 12
16 39 4 39 -6 0 -5 6 2 15 9 10 9 15 1 15 -13 0 -10 22 4 32 7 5 6 8 0 8 -6 0
-12 28 -13 65 -2 78 -4 88 -17 97 -12 9 -14 9 -40 -1z"/>
<path d="M674 2601 c-49 -28 -80 -66 -75 -93 0 -5 -3 -8 -8 -8 -14 0 -5 -84
13 -118 47 -91 198 -73 252 31 8 15 12 32 9 37 -3 6 -3 10 2 10 4 0 8 16 8 35
0 19 -4 35 -9 35 -4 0 -6 6 -3 14 4 9 -8 27 -28 45 -29 25 -42 29 -84 28 -27
0 -62 -8 -77 -16z m77 -58 c5 -14 8 -32 5 -39 -3 -8 -1 -16 3 -18 5 -3 9 -17
9 -31 0 -13 -5 -22 -10 -19 -6 4 -5 -3 1 -14 9 -16 8 -24 -4 -36 -17 -16 -44
-12 -46 8 0 6 -3 20 -5 31 -12 51 -14 107 -4 125 15 28 39 25 51 -7z"/>
<path d="M491 2577 c-6 -6 -11 -8 -11 -4 0 15 -80 -34 -96 -59 -25 -37 -20
-81 11 -110 14 -13 30 -24 35 -24 5 0 15 -10 21 -22 10 -18 8 -24 -7 -35 -10
-7 -26 -11 -35 -8 -12 4 -20 -1 -24 -15 -4 -12 -5 -24 -2 -26 10 -10 47 -12
52 -3 4 5 10 7 15 4 5 -3 32 4 59 16 39 16 53 28 64 57 9 23 11 39 5 43 -5 3
-10 10 -10 15 -1 16 -22 39 -50 53 -15 8 -25 17 -23 22 3 4 -1 9 -7 12 -21 6
7 34 41 40 23 5 28 10 24 26 -5 22 -47 33 -62 18z"/>
<path d="M3256 2573 c-4 -4 -99 -13 -173 -16 -33 -1 -59 -5 -56 -9 2 -5 -11
-9 -29 -10 -18 0 -44 -3 -58 -4 -14 -2 -43 -5 -65 -8 -22 -2 -40 -5 -40 -6 0
-1 -16 -3 -35 -5 -19 -1 -51 -5 -70 -8 -19 -3 -57 -9 -85 -13 -67 -8 -83 -12
-94 -19 -5 -3 -13 -1 -16 5 -4 7 -11 7 -18 2 -7 -5 -22 -8 -35 -7 -13 1 -25
-2 -28 -7 -3 -4 -10 -8 -15 -8 -6 0 -7 6 -3 13 6 9 5 9 -7 0 -8 -6 -39 -14
-69 -18 -30 -4 -68 -9 -85 -12 -16 -2 -47 -5 -67 -6 -21 -1 -38 -5 -38 -9 0
-3 -11 -5 -25 -3 -14 1 -25 -1 -25 -4 0 -3 -15 -6 -33 -7 -30 -1 -90 -8 -147
-18 -14 -3 -46 -7 -72 -11 -26 -3 -67 -9 -92 -14 -25 -5 -48 -6 -51 -3 -3 3
-5 0 -5 -7 0 -9 -5 -9 -20 -1 -11 6 -20 7 -20 2 0 -4 -10 -8 -22 -9 -13 0 -48
-4 -78 -8 -83 -11 -95 -13 -95 -15 0 -2 -31 -7 -90 -14 -27 -3 -59 -8 -70 -10
-28 -6 -126 -19 -150 -20 -11 -1 -24 -4 -30 -7 -5 -3 -22 -5 -38 -4 -15 0 -27
-2 -27 -5 0 -3 -12 -6 -27 -7 -16 -1 -44 -4 -63 -8 -19 -3 -48 -8 -65 -10 -16
-2 -46 -7 -65 -10 -80 -13 -97 -16 -140 -22 -53 -7 -75 -11 -75 -13 0 -1 -13
-3 -30 -4 -16 -1 -36 -5 -42 -9 -7 -5 -18 -5 -23 -2 -6 3 -16 3 -23 -2 -6 -4
-21 -8 -32 -9 -11 -2 -38 -6 -60 -10 -22 -4 -52 -7 -67 -8 -14 -1 -24 -4 -21
-8 2 -5 -5 -8 -15 -8 -24 0 -79 -60 -88 -95 -10 -40 2 -57 38 -54 18 2 39 7
46 12 8 6 12 5 12 -2 0 -7 5 -9 13 -4 6 4 23 9 37 11 13 2 27 6 30 10 3 4 19
8 35 9 17 1 39 4 50 7 57 16 145 33 150 28 3 -3 5 -1 5 5 0 6 13 10 30 9 16
-1 30 1 30 4 0 4 6 7 13 7 6 0 39 6 72 13 33 7 69 14 80 16 11 2 29 5 40 7 11
3 40 8 65 13 52 9 59 11 63 14 1 1 16 3 32 5 17 1 30 3 30 4 0 1 12 4 26 6 29
4 79 12 122 20 15 3 38 7 52 9 13 3 29 7 34 10 5 4 13 2 16 -4 4 -7 11 -7 18
-2 7 5 28 12 47 16 53 9 113 19 135 22 11 1 21 3 23 4 1 2 16 4 32 5 17 1 32
4 35 5 3 1 14 4 25 5 11 1 21 4 23 5 1 1 13 4 27 5 63 7 117 14 135 18 11 3
43 8 70 11 28 4 64 9 80 12 17 3 50 7 75 9 25 2 45 4 45 5 0 1 11 3 25 5 14 1
52 6 85 10 33 4 69 8 80 9 11 1 26 5 33 9 7 5 12 3 12 -5 0 -8 3 -9 8 -3 4 6
22 10 40 10 17 -1 32 2 32 7 0 4 11 3 24 -2 13 -5 27 -6 30 -2 8 7 19 9 111
18 105 10 120 12 120 14 0 1 32 3 70 5 39 2 70 4 70 5 0 1 8 3 18 5 9 2 17 -2
17 -8 0 -8 3 -8 8 -2 4 6 12 11 17 11 14 2 216 16 235 17 8 0 18 5 22 11 5 7
8 6 8 -3 0 -11 3 -11 15 -1 12 10 15 10 15 -1 0 -9 3 -10 8 -4 4 6 27 10 52
10 25 -1 50 3 57 8 7 5 16 6 22 3 16 -10 41 5 41 25 0 31 -75 96 -115 101 -20
2 -37 3 -39 1z"/>
<path d="M4949 2497 c0 -1 -3 -15 -5 -32 -8 -50 -37 -129 -53 -142 -8 -7 -11
-13 -6 -13 5 0 -13 -21 -40 -46 -28 -26 -45 -44 -38 -40 6 3 13 2 15 -3 1 -5
21 -10 43 -12 22 -1 45 -5 50 -8 6 -3 21 -7 35 -9 14 -1 42 -11 63 -21 20 -10
37 -14 37 -9 0 7 5 6 13 -1 21 -17 27 -3 12 26 -8 15 -12 30 -9 35 3 4 0 8 -5
8 -6 0 -11 10 -11 23 0 13 -4 27 -10 33 -5 5 -11 22 -12 36 -1 15 -5 25 -9 23
-3 -3 -12 20 -19 50 -7 30 -17 55 -21 55 -4 0 -6 9 -4 19 2 11 -3 22 -11 25
-8 3 -14 4 -15 3z"/>
<path d="M4400 2341 c0 -3 -14 -12 -31 -20 -35 -16 -225 -198 -216 -208 4 -3
13 -1 20 5 8 7 17 9 20 5 4 -3 7 -1 7 5 0 5 21 18 48 28 26 10 52 21 58 26 6
4 14 5 17 1 4 -3 7 -1 7 6 0 7 5 9 10 6 6 -3 10 -2 10 2 0 5 8 9 18 10 26 1
97 11 100 13 1 2 11 3 21 4 31 2 34 13 12 35 -12 12 -21 18 -21 14 0 -11 -39
38 -45 57 -5 15 -35 25 -35 11z"/>
<path d="M3125 2320 c2 -3 -16 -6 -40 -6 -62 -2 -80 -10 -63 -28 7 -8 16 -12
21 -9 4 2 7 -3 7 -11 0 -9 4 -16 10 -16 5 0 40 -31 77 -69 77 -79 83 -86 102
-123 8 -16 18 -28 23 -28 5 0 7 -4 3 -9 -3 -5 -1 -12 5 -16 6 -4 8 -11 5 -16
-4 -5 -2 -9 4 -9 5 0 15 -25 22 -55 7 -31 17 -59 23 -62 6 -3 8 -3 5 1 -4 4
12 25 34 46 22 22 36 40 31 40 -5 0 -4 4 1 8 15 11 36 55 38 80 0 12 5 22 10
22 4 0 5 5 1 12 -4 7 -9 24 -10 38 -4 32 -34 100 -46 100 -4 0 -8 6 -8 13 0
14 -104 86 -126 88 -17 2 -33 6 -36 9 -6 5 -96 5 -93 0z"/>
<path d="M2759 2280 c-9 -5 -26 -8 -38 -5 -13 2 -21 -1 -21 -11 0 -8 4 -14 8
-14 28 0 167 -140 191 -193 28 -63 49 -137 53 -194 1 -18 6 -33 11 -33 4 0 5
-5 2 -10 -4 -6 5 -10 24 -8 17 1 31 6 31 10 0 4 6 5 14 2 8 -3 24 -1 35 6 16
8 21 8 21 -2 0 -8 3 -9 8 -3 4 6 21 10 37 10 17 0 35 2 40 4 6 3 16 6 23 7 8
2 16 5 19 7 8 8 -19 117 -29 117 -5 0 -6 5 -3 10 3 6 1 10 -6 10 -7 0 -10 3
-6 6 3 3 -5 24 -19 45 -13 21 -24 41 -24 43 0 11 -113 131 -157 167 -10 8 -24
14 -31 11 -7 -2 -12 1 -12 7 0 6 -3 10 -7 10 -5 -1 -10 0 -13 1 -14 7 -97 5
-112 -2 -9 -4 -18 -4 -20 1 -2 6 -9 6 -19 1z"/>
<path d="M5837 2274 c-3 -3 -22 -8 -41 -9 -19 -2 -46 -10 -58 -17 -13 -7 -27
-11 -31 -10 -4 1 -25 -13 -45 -33 -20 -19 -41 -35 -45 -35 -5 0 -5 -4 -2 -10
3 -5 1 -10 -4 -10 -6 0 -11 -7 -11 -16 0 -9 -5 -12 -12 -8 -8 5 -9 2 -5 -9 3
-10 2 -17 -2 -17 -19 0 -34 -145 -18 -167 5 -7 7 -13 3 -13 -4 0 0 -13 9 -30
8 -16 14 -31 13 -33 -2 -2 13 -17 32 -34 38 -33 88 -61 117 -66 10 -1 24 -7
32 -11 8 -5 12 -5 9 0 -4 5 8 9 25 8 18 0 37 3 42 7 23 17 66 -43 70 -97 1
-11 4 -25 8 -30 3 -6 2 -16 -3 -24 -5 -9 -5 -19 1 -26 7 -8 6 -14 -1 -19 -8
-5 -8 -11 1 -21 6 -8 7 -14 2 -14 -11 0 -11 -29 0 -46 3 -6 3 -14 0 -18 -6 -6
-11 -61 -13 -131 -1 -36 7 -112 13 -122 4 -6 3 -14 -2 -18 -6 -3 -5 -16 4 -33
7 -15 19 -40 27 -57 23 -51 50 -72 128 -99 51 -17 145 -15 180 4 14 8 28 14
32 15 4 0 29 20 54 45 45 43 80 103 87 148 2 12 6 24 10 28 3 4 2 15 -4 25 -7
13 -6 19 1 19 17 0 -18 72 -50 104 -16 16 -39 30 -52 32 -13 1 -23 3 -23 4 0
1 -12 3 -27 4 -16 2 -28 -1 -28 -6 0 -5 -4 -7 -8 -4 -11 7 -64 -29 -55 -37 3
-4 2 -7 -4 -7 -11 0 -27 -37 -24 -54 1 -5 -4 -13 -11 -17 -7 -5 -8 -9 -3 -9 6
0 11 -20 13 -44 2 -37 -1 -44 -18 -49 -11 -3 -20 -1 -20 5 0 5 -3 7 -8 4 -10
-6 -34 14 -54 44 -11 19 -15 45 -13 97 2 40 6 77 11 84 4 7 8 26 10 43 1 17 5
45 9 61 4 17 8 36 8 43 0 6 3 12 7 12 3 0 6 8 6 18 2 26 12 70 20 83 5 8 3 9
-6 4 -10 -6 -11 -4 -4 6 4 8 9 19 10 24 1 6 6 28 11 50 6 22 9 50 8 63 -1 12
1 22 4 22 3 0 5 30 4 67 -3 105 -12 138 -59 208 -19 27 -34 45 -34 40 0 -6 -5
-2 -11 8 -13 23 -114 70 -155 72 -17 1 -36 5 -41 8 -6 4 -13 4 -16 1z"/>
<path d="M2388 2252 c-46 -4 -49 -19 -8 -33 17 -6 30 -15 30 -20 0 -5 6 -9 14
-9 17 0 126 -101 126 -117 0 -7 8 -17 18 -22 9 -6 14 -11 10 -11 -4 0 3 -19
15 -42 13 -24 22 -53 21 -65 0 -13 2 -23 6 -23 8 0 5 -49 -4 -57 -3 -3 -1 -14
5 -24 5 -11 6 -19 1 -19 -14 0 -11 -38 5 -44 8 -3 18 -4 21 -2 6 3 83 14 152
22 14 1 26 3 28 4 3 4 20 7 37 9 8 0 13 7 10 14 -2 6 -7 32 -10 57 -3 25 -8
58 -10 75 -13 86 -128 243 -205 276 -16 8 -30 17 -30 20 0 3 -6 7 -12 8 -22 4
-181 6 -220 3z"/>
<path d="M5601 2231 c-1 -8 -4 -11 -8 -8 -3 4 -15 -1 -26 -10 -10 -10 -22 -18
-26 -17 -12 2 -61 -18 -61 -25 0 -4 -6 -8 -12 -8 -7 0 -41 -14 -75 -31 -34
-16 -64 -28 -67 -24 -3 3 -6 0 -6 -6 0 -7 -3 -11 -7 -10 -5 1 -18 -4 -30 -12
-23 -15 -30 -10 92 -74 17 -9 53 -34 82 -56 29 -21 55 -35 58 -30 3 4 -1 11
-7 13 -10 4 -9 8 2 16 8 6 10 11 4 11 -11 0 -7 85 6 120 1 3 2 8 1 13 0 4 4 7
11 7 6 0 9 3 5 6 -6 7 48 93 66 105 5 4 7 13 4 20 -4 12 -6 11 -6 0z"/>
<path d="M2188 2215 c-1 -1 -25 -5 -52 -8 -50 -6 -83 -25 -58 -34 6 -3 12 -9
12 -15 0 -5 9 -22 19 -37 11 -15 21 -34 23 -42 2 -8 5 -16 8 -19 27 -27 62
-151 65 -237 2 -34 7 -67 11 -74 4 -7 3 -9 -4 -5 -7 4 -10 -3 -8 -21 3 -26 19
-36 40 -25 5 3 21 7 35 8 51 7 86 13 125 23 21 5 45 7 52 4 8 -3 14 0 14 7 0
7 6 10 13 7 30 -11 40 11 42 85 2 75 -14 158 -35 184 -7 8 -9 14 -5 14 22 0
-126 124 -179 150 -55 27 -109 43 -118 35z"/>
<path d="M1885 2161 c-3 -3 -25 -5 -120 -14 -18 -2 -31 -19 -41 -52 -9 -32
-25 -115 -26 -140 -1 -24 14 -130 20 -139 3 -6 8 -22 9 -36 2 -14 7 -34 12
-45 16 -36 24 -60 23 -67 -1 -5 6 -9 15 -9 45 -4 59 -4 68 1 6 3 19 5 30 6 50
2 186 22 191 27 14 14 24 200 13 232 -3 11 -12 38 -18 60 -16 51 -56 133 -80
163 -15 17 -28 22 -56 20 -20 -2 -38 -5 -40 -7z"/>
<path d="M1553 2129 c-10 -3 -26 -5 -35 -3 -10 1 -18 -2 -18 -7 0 -6 -4 -8
-10 -4 -10 6 -34 -11 -89 -65 -57 -57 -101 -120 -84 -120 4 0 3 -4 -3 -8 -15
-9 -47 -85 -32 -76 8 5 8 3 2 -7 -10 -16 -14 -109 -5 -109 4 0 8 -8 9 -17 2
-19 6 -35 17 -70 4 -12 7 -26 8 -30 0 -4 7 -14 14 -21 12 -12 45 -12 143 2 8
1 42 6 75 10 33 5 67 10 75 12 8 1 18 3 21 3 9 1 7 31 -3 31 -4 0 -8 11 -8 25
0 14 -4 25 -8 25 -5 0 -9 6 -9 13 -1 22 -11 66 -19 78 -12 21 -6 192 8 200 11
7 11 9 0 9 -7 0 -11 4 -8 8 3 5 8 22 10 38 11 59 15 74 21 84 7 11 -41 11 -72
-1z"/>
<path d="M1340 2098 c0 -6 -3 -9 -6 -6 -3 3 -33 -1 -67 -9 -34 -8 -72 -17 -85
-19 -35 -7 -93 -47 -125 -85 -35 -42 -78 -124 -70 -133 4 -3 1 -6 -5 -6 -7 0
-11 -3 -11 -7 1 -5 0 -10 -1 -13 -13 -35 -21 -210 -10 -210 4 0 7 -10 7 -22 0
-13 5 -35 11 -50 9 -22 17 -27 34 -24 13 3 23 5 23 6 0 1 15 3 33 6 18 2 43 9
54 15 15 8 19 8 14 0 -4 -6 -3 -11 3 -11 5 0 12 4 15 8 2 4 19 9 37 10 38 3
51 18 38 41 -24 42 -36 83 -45 155 -5 37 -3 47 6 41 9 -6 9 -3 1 14 -7 11 -8
21 -3 21 4 0 8 8 9 18 5 53 9 70 16 65 4 -2 7 5 7 17 0 12 4 18 10 15 6 -3 7
1 4 9 -3 9 -1 16 5 16 6 0 11 6 11 14 0 7 23 37 50 67 46 49 59 69 45 69 -3 0
-5 -5 -5 -12z"/>
<path d="M937 2003 c-3 -2 -65 -14 -87 -17 -8 0 -19 -7 -23 -13 -4 -7 -13 -13
-19 -13 -20 0 -85 -77 -104 -124 -10 -25 -23 -46 -27 -46 -5 0 -5 -5 -2 -10 4
-6 2 -16 -4 -23 -9 -12 -27 -72 -37 -127 -7 -41 -7 -156 0 -168 7 -11 24 -11
44 1 7 5 12 3 12 -5 0 -10 2 -10 9 0 4 8 12 13 17 12 8 -2 99 10 117 15 4 2
18 3 32 4 20 1 25 6 25 29 0 15 -5 33 -12 40 -9 9 -9 12 0 12 9 0 10 6 4 18
-13 25 -8 171 7 217 17 49 39 92 66 124 12 15 14 21 5 16 -8 -4 -6 1 5 13 49
52 49 53 10 50 -20 -1 -37 -3 -38 -5z"/>
<path d="M658 1945 c-1 -2 -16 -5 -33 -8 -77 -14 -103 -21 -135 -40 -47 -28
-108 -94 -127 -137 -17 -40 -25 -130 -11 -130 5 0 7 -4 3 -9 -5 -10 12 -55 30
-79 36 -46 98 -90 142 -98 20 -4 22 -1 15 18 -10 28 -4 150 9 166 1 1 2 5 3
10 1 4 6 22 10 40 4 18 14 45 22 60 8 15 14 31 14 36 0 5 20 42 45 83 25 40
45 75 45 77 0 6 -27 15 -32 11z"/>
<path d="M3162 1757 c-6 -7 -9 -25 -8 -40 2 -15 -1 -27 -6 -27 -5 0 -6 -4 -3
-10 3 -5 8 -60 11 -122 2 -62 8 -138 13 -168 4 -30 6 -61 4 -67 -3 -7 0 -13 6
-13 6 0 8 -6 5 -14 -3 -8 -1 -24 5 -35 8 -13 8 -22 1 -26 -6 -4 -7 -12 -3 -18
4 -7 8 -21 10 -32 7 -59 15 -103 25 -128 6 -15 8 -30 4 -34 -3 -3 -1 -11 4
-18 7 -9 -5 -17 -45 -30 -30 -11 -55 -23 -55 -27 0 -4 -5 -8 -10 -8 -25 0
-106 -109 -114 -152 -3 -13 -5 -23 -6 -23 -5 0 -6 -111 -1 -120 3 -5 7 -19 8
-30 2 -11 8 -22 13 -23 6 -2 8 -8 4 -13 -3 -5 0 -9 6 -9 6 0 9 -4 6 -8 -6 -10
60 -83 68 -75 3 4 6 2 6 -4 0 -10 55 -41 90 -51 29 -9 145 -7 165 2 11 5 24 8
28 7 9 -1 14 3 74 54 76 66 116 184 90 270 -4 17 -10 35 -11 40 -7 25 -30 65
-38 65 -4 0 -8 5 -8 12 0 31 -111 96 -178 105 -45 6 -50 13 -48 64 1 21 0 39
-3 39 -4 0 -6 31 -6 70 0 38 -3 70 -6 70 -3 0 -7 26 -8 57 -1 32 -8 61 -14 65
-8 5 -8 8 -1 8 6 0 11 7 11 15 0 8 -3 15 -7 15 -4 0 -6 12 -4 27 1 15 -2 33
-8 40 -7 9 -7 13 1 13 7 0 8 8 0 26 -5 15 -7 29 -4 32 2 3 0 11 -6 19 -9 9 -8
13 0 13 8 0 9 5 2 18 -5 10 -12 36 -15 58 -7 60 -16 97 -27 110 -5 6 -6 14 -2
17 3 4 4 7 1 7 -3 0 -10 -6 -16 -13z"/>
<path d="M5845 1731 c-13 -13 -66 -18 -83 -7 -7 4 -12 2 -12 -5 0 -10 -3 -10
-12 -1 -7 7 -21 12 -32 12 -20 -1 -20 -1 2 -19 12 -11 22 -24 22 -29 0 -6 4
-12 8 -14 22 -9 97 -142 93 -165 -1 -7 2 -13 7 -13 6 0 13 -15 16 -32 4 -18
13 -46 20 -63 16 -34 15 -45 15 132 1 67 -3 133 -8 147 -6 13 -7 27 -4 30 4 3
1 6 -5 6 -6 0 -12 7 -14 16 -2 10 -6 12 -13 5z"/>
<path d="M2647 1644 c-1 -1 -20 -5 -42 -8 -23 -4 -52 -9 -65 -12 -14 -3 -36
-7 -50 -10 -14 -2 -32 -7 -40 -11 -8 -3 -22 -7 -30 -8 -8 -1 -42 -10 -75 -21
-33 -10 -63 -17 -67 -16 -5 1 -8 -3 -8 -9 0 -6 -6 -9 -12 -6 -7 2 -28 -5 -46
-15 -18 -10 -37 -18 -43 -18 -15 0 -64 -51 -82 -85 -24 -48 -39 -114 -44 -195
-6 -94 -6 -81 2 -175 4 -44 8 -95 8 -112 1 -18 4 -33 7 -33 3 0 7 -16 8 -37 2
-20 6 -41 9 -46 3 -6 8 -26 10 -46 2 -19 9 -41 15 -48 6 -8 8 -16 5 -20 -3 -3
0 -18 9 -34 8 -16 14 -31 13 -34 -3 -16 55 -117 73 -126 29 -16 42 2 41 58 0
48 -26 218 -33 218 -1 0 -3 14 -5 30 -5 37 -15 85 -22 105 -3 8 -7 22 -8 30
-3 22 -13 78 -24 134 -5 27 -8 59 -6 72 1 13 -1 24 -5 24 -11 0 -8 34 4 42 8
6 8 8 0 8 -14 0 -4 54 17 89 17 29 71 79 113 105 17 10 34 23 37 29 4 5 12 6
18 3 6 -4 11 -3 11 2 0 8 31 24 127 64 15 6 30 12 33 13 3 1 12 5 20 8 45 19
105 35 112 31 4 -3 8 -1 8 4 0 5 25 14 55 21 36 8 55 17 55 27 0 12 -12 14
-50 13 -28 -2 -51 -4 -53 -5z"/>
<path d="M4317 1597 c-5 -13 20 -41 26 -29 14 26 13 38 -3 39 -10 1 -20 -4
-23 -10z"/>
<path d="M4390 1562 c0 -11 8 -18 20 -19 24 -2 27 22 4 31 -23 9 -24 8 -24
-12z"/>
<path d="M4460 1535 c-6 -8 -9 -19 -6 -24 9 -14 36 -2 36 14 0 21 -16 26 -30
10z"/>
<path d="M4523 1513 c-19 -7 -15 -41 5 -52 20 -11 42 3 42 26 0 15 -30 32 -47
26z"/>
<path d="M4612 1463 c-6 -3 -10 -9 -6 -14 3 -5 1 -9 -5 -9 -5 0 -8 -6 -7 -12
4 -26 18 -38 47 -38 25 0 29 4 29 29 0 37 -25 55 -58 44z"/>
<path d="M3990 1452 c0 -10 77 -49 143 -73 20 -7 37 -17 37 -21 0 -4 3 -8 8
-7 16 2 52 -14 52 -24 0 -6 3 -8 6 -4 6 6 98 -47 122 -69 6 -7 21 -16 32 -19
11 -4 18 -11 15 -16 -4 -5 -1 -9 6 -9 16 0 67 -59 86 -100 15 -34 18 -113 6
-134 -7 -10 -14 -45 -16 -78 -1 -10 -6 -18 -11 -18 -5 0 -7 -3 -3 -6 3 -4 0
-22 -8 -40 -8 -19 -12 -34 -9 -34 2 0 -2 -13 -11 -30 -8 -16 -15 -32 -15 -35
-1 -20 -14 -65 -20 -65 -4 0 -6 -10 -6 -22 1 -13 -1 -27 -5 -33 -13 -20 -37
-104 -31 -109 3 -3 1 -6 -4 -6 -5 0 -10 -8 -11 -17 -1 -10 -3 -35 -5 -56 -3
-29 0 -40 13 -47 22 -12 48 11 80 70 13 25 26 47 29 50 3 3 7 14 8 25 2 11 9
23 14 26 6 4 7 12 4 18 -4 6 -3 11 1 11 5 0 19 35 32 78 12 42 25 84 28 92 3
8 7 26 8 40 1 14 4 26 5 28 1 1 4 11 5 22 1 11 4 21 5 23 4 3 7 32 14 115 3
40 8 77 11 82 3 5 2 11 -3 14 -4 2 -9 24 -11 48 -1 24 -6 47 -12 53 -5 5 -9
15 -9 22 0 23 -41 71 -71 84 -16 6 -29 15 -29 20 0 5 -3 9 -7 8 -16 -2 -53 14
-53 23 0 6 -7 8 -15 4 -8 -3 -15 -1 -15 4 0 6 -4 10 -9 10 -5 0 -26 8 -47 17
-22 9 -43 18 -49 19 -5 1 -29 9 -52 18 -24 8 -43 12 -43 8 0 -4 -4 -2 -8 3
-13 20 -182 53 -182 37z"/>
<path d="M4800 1450 c-44 -12 -70 -34 -81 -68 -46 -141 144 -221 209 -88 11
24 18 47 14 51 -4 4 -7 10 -7 13 0 21 -30 72 -41 72 -8 0 -14 5 -14 12 0 6 -3
9 -6 5 -3 -3 -16 -2 -28 2 -11 4 -32 5 -46 1z"/>
<path d="M624 1339 c-10 -33 -3 -156 11 -178 3 -6 0 -11 -7 -11 -8 0 -9 -3 -3
-8 6 -4 11 -18 13 -32 7 -68 11 -95 12 -95 4 0 23 -114 23 -142 1 -13 4 -23 7
-23 3 0 7 -15 8 -32 3 -33 9 -73 12 -73 2 0 8 -38 14 -80 2 -16 5 -30 6 -30 1
0 4 -12 5 -26 3 -22 -3 -29 -36 -44 -87 -40 -159 -144 -165 -238 -4 -59 18
-148 42 -171 8 -9 12 -16 9 -16 -4 0 9 -16 29 -35 36 -34 94 -71 109 -67 4 1
7 -3 7 -9 0 -8 4 -8 14 0 11 9 16 9 21 1 7 -11 48 -10 153 2 6 1 12 5 12 10 0
5 5 6 10 3 6 -3 10 -2 10 4 0 5 8 12 18 15 25 8 93 76 86 87 -3 5 0 9 5 9 6 0
11 7 11 15 0 8 4 15 10 15 5 0 9 3 9 7 -1 5 0 10 1 13 8 19 11 82 7 168 0 6
-4 12 -9 12 -4 0 -8 9 -8 19 0 11 -7 27 -16 35 -8 9 -13 16 -9 16 3 0 -6 12
-20 27 -14 15 -25 31 -25 35 0 5 -5 8 -12 8 -6 0 -26 11 -45 26 -18 14 -33 20
-33 14 0 -6 -10 -4 -24 6 -14 8 -27 15 -30 15 -4 -1 -24 -1 -45 -1 l-40 0 0
48 c-1 45 -2 60 -15 159 -14 101 -16 120 -22 153 -3 19 -7 46 -9 60 -2 14 -4
25 -5 25 -1 0 -3 11 -5 25 -3 25 -8 51 -20 100 -4 14 -8 34 -9 45 -2 11 -4 20
-5 20 -3 0 -10 35 -13 62 -1 12 -6 19 -10 17 -4 -3 -8 3 -8 13 0 10 -4 24 -9
32 -7 11 -11 8 -17 -10z"/>
<path d="M2637 1297 c-12 -13 -35 -40 -50 -61 -16 -20 -41 -42 -55 -48 -43
-17 -104 -15 -139 4 -34 18 -58 16 -67 -7 -10 -27 68 -77 121 -77 13 0 20 -5
16 -11 -4 -6 -1 -7 8 -1 8 5 30 9 49 10 76 2 180 71 180 117 0 45 -12 86 -27
91 -8 3 -24 -5 -36 -17z"/>
<path d="M4054 1162 c-4 -9 -8 -19 -8 -22 -1 -3 -4 -9 -7 -15 -9 -17 6 -75 20
-75 4 0 16 -8 27 -17 28 -27 65 -43 99 -45 17 -1 36 -6 44 -12 11 -8 13 -8 7
2 -5 8 1 12 18 13 14 1 29 3 34 4 4 2 17 6 30 10 22 7 27 21 16 49 -5 13 -9
14 -21 5 -8 -7 -41 -13 -73 -13 -53 -1 -61 2 -89 32 -18 18 -36 43 -41 57 -13
34 -46 50 -56 27z"/>
</g>
</svg>
