<?xml version="1.0" standalone="no"?>
<!DOCTYPE svg PUBLIC "-//W3C//DTD SVG 20010904//EN"
 "http://www.w3.org/TR/2001/REC-SVG-20010904/DTD/svg10.dtd">
<svg version="1.0" xmlns="http://www.w3.org/2000/svg"
 width="760.000000pt" height="760.000000pt" viewBox="0 0 760.000000 760.000000"
 preserveAspectRatio="xMidYMid meet">
<metadata>
Created by potrace 1.14, written by Peter Selinger 2001-2017
</metadata>
<g transform="translate(0.000000,760.000000) scale(0.100000,-0.100000)"
fill="#000000" stroke="none">
<path d="M2632 7558 c-6 -6 -12 -8 -12 -4 0 5 -8 2 -17 -5 -9 -8 -14 -9 -11
-4 4 6 -2 11 -12 11 -10 0 -16 -6 -13 -12 2 -7 0 -15 -6 -19 -16 -9 -13 -51 4
-65 8 -7 15 -9 15 -4 0 5 5 1 11 -9 8 -13 14 -15 29 -7 13 7 21 7 25 0 4 -7
12 -7 24 0 10 5 21 7 24 4 11 -11 57 -11 57 0 0 6 5 4 10 -4 5 -8 10 -11 10
-6 0 4 12 1 26 -9 15 -9 24 -13 21 -8 -4 5 7 10 23 10 17 0 30 -5 30 -10 0 -5
7 -4 15 3 12 10 15 10 15 0 0 -7 6 -10 14 -7 8 3 17 -1 20 -8 3 -8 12 -12 19
-9 8 3 21 -2 30 -10 9 -9 23 -16 31 -16 9 0 16 -8 16 -17 0 -15 2 -16 10 -3 8
13 10 12 10 -2 0 -10 7 -18 16 -18 8 0 12 -4 9 -10 -3 -5 -1 -10 4 -10 6 0 11
-6 11 -13 0 -18 24 -67 33 -67 4 0 7 -17 7 -38 0 -21 6 -44 13 -51 9 -11 9
-12 0 -7 -9 5 -11 2 -7 -8 3 -9 10 -16 16 -16 5 0 6 -5 3 -10 -4 -6 -12 -7
-18 -3 -7 4 -6 0 2 -10 7 -9 11 -26 8 -37 -3 -11 0 -20 5 -20 6 0 5 -6 -2 -15
-7 -8 -9 -15 -4 -15 5 0 9 -20 9 -45 0 -25 -4 -45 -8 -45 -5 0 -5 -5 -2 -10
10 -16 11 -230 2 -230 -5 0 -5 -5 -1 -11 8 -14 8 -128 0 -136 -3 -3 -1 -14 5
-24 7 -13 6 -19 -1 -19 -6 0 -8 -5 -4 -11 9 -16 11 -129 2 -129 -4 0 -5 -6 -2
-13 10 -27 10 -87 0 -87 -6 0 -2 -7 8 -15 11 -8 14 -15 8 -15 -8 0 -11 -17 -9
-55 2 -30 -1 -56 -6 -58 -5 -1 -2 -11 7 -20 10 -10 13 -17 6 -17 -8 0 -11 -15
-8 -45 2 -25 -1 -45 -5 -45 -5 0 -5 -5 -2 -10 9 -14 12 -99 3 -94 -3 2 -18 0
-33 -6 -17 -7 -24 -7 -20 0 3 6 -2 11 -12 11 -72 6 -85 8 -90 13 -3 3 -14 1
-24 -5 -12 -6 -19 -6 -19 0 0 5 -9 7 -20 4 -12 -3 -20 0 -20 7 0 10 -3 10 -15
0 -12 -10 -16 -9 -21 4 -5 12 -10 13 -25 5 -10 -5 -19 -6 -19 -2 0 4 -17 8
-38 7 -20 0 -41 2 -47 5 -5 3 -21 6 -35 6 -14 0 -31 4 -37 8 -7 5 -13 4 -13 0
0 -5 -11 -9 -25 -9 -14 0 -25 4 -25 8 0 5 -9 4 -19 -2 -14 -7 -21 -6 -24 3 -4
9 -6 8 -6 -2 -1 -11 -4 -11 -16 -1 -11 9 -15 9 -15 1 0 -8 -6 -9 -17 -4 -21
10 -65 9 -82 -1 -6 -4 -11 -2 -11 5 0 8 -4 8 -15 -1 -12 -10 -15 -10 -15 0 0
9 -3 10 -13 1 -8 -6 -17 -8 -20 -4 -10 9 -60 10 -79 0 -11 -4 -18 -4 -18 2 0
7 -8 7 -23 2 -13 -5 -30 -5 -37 -1 -8 5 -19 6 -25 2 -16 -10 -49 -9 -57 3 -5
6 -8 3 -8 -6 0 -12 -9 -16 -32 -17 -18 0 -35 -1 -38 -2 -3 -1 -19 -3 -37 -4
-17 -1 -39 -8 -47 -15 -10 -8 -16 -9 -16 -3 0 6 -11 8 -27 5 -16 -3 -42 -6
-59 -7 -21 0 -30 -5 -27 -13 4 -9 -3 -10 -26 -3 -19 5 -29 5 -26 -1 4 -5 -3
-9 -14 -9 -11 0 -23 -5 -27 -11 -4 -8 -9 -7 -15 2 -7 12 -9 12 -9 0 0 -8 -6
-11 -15 -7 -8 3 -31 -4 -51 -15 -19 -10 -32 -14 -28 -8 4 7 -3 5 -16 -4 -16
-11 -28 -13 -41 -7 -14 8 -16 6 -12 -13 3 -16 2 -18 -5 -9 -7 11 -12 10 -26
-3 -9 -9 -16 -13 -16 -9 0 3 -6 1 -13 -5 -8 -6 -17 -8 -20 -4 -4 3 -7 1 -7 -6
0 -7 -4 -10 -9 -7 -10 6 -61 -16 -61 -26 0 -5 -9 -8 -20 -8 -11 0 -20 -5 -20
-11 0 -5 -4 -7 -10 -4 -5 3 -10 1 -10 -5 0 -6 -4 -8 -10 -5 -5 3 -10 1 -10 -5
0 -6 -4 -8 -10 -5 -5 3 -10 2 -10 -4 0 -6 -11 -13 -25 -17 -14 -3 -25 -10 -25
-16 0 -5 -4 -6 -10 -3 -5 3 -10 1 -10 -4 0 -6 -8 -11 -17 -11 -15 0 -16 -2 -3
-10 12 -8 11 -10 -7 -10 -13 0 -23 -5 -23 -11 0 -5 -4 -8 -9 -5 -5 3 -12 -1
-15 -10 -3 -9 -11 -12 -18 -8 -8 5 -9 2 -4 -11 5 -15 4 -16 -9 -5 -13 11 -14
10 -9 -3 4 -11 -1 -16 -18 -19 -13 -2 -22 -9 -20 -17 2 -9 -3 -11 -13 -7 -9 3
-14 2 -12 -2 2 -4 -9 -19 -24 -34 -16 -15 -29 -24 -29 -20 -1 4 -8 -5 -16 -20
-14 -26 -25 -33 -48 -29 -5 1 -3 -5 4 -14 11 -13 10 -14 -5 -9 -12 5 -16 4
-12 -3 4 -6 0 -14 -9 -17 -9 -3 -14 -13 -11 -21 4 -10 1 -12 -10 -8 -12 5 -15
2 -10 -10 4 -12 1 -17 -11 -17 -15 0 -15 -2 -2 -10 13 -9 13 -10 0 -11 -8 -1
-19 -1 -23 0 -5 1 -6 -3 -2 -9 6 -9 0 -19 -33 -56 -8 -8 -11 -21 -8 -29 3 -8
2 -14 -2 -14 -19 3 -33 -2 -28 -10 4 -5 0 -12 -6 -14 -10 -4 -9 -6 1 -6 9 -1
6 -8 -9 -21 -13 -11 -20 -23 -17 -27 4 -3 -1 -12 -11 -20 -10 -9 -11 -11 -2
-7 13 7 13 5 2 -9 -8 -9 -11 -21 -7 -27 3 -5 -1 -10 -9 -10 -12 0 -16 -10 -16
-36 0 -23 -4 -33 -11 -28 -7 4 -10 1 -7 -7 3 -8 -2 -20 -9 -28 -8 -7 -12 -20
-9 -27 3 -7 1 -16 -5 -20 -6 -4 -6 -11 2 -20 9 -11 8 -14 -6 -14 -14 0 -15 -3
-5 -15 7 -9 8 -15 2 -15 -5 0 -9 -13 -8 -30 1 -16 -1 -30 -5 -30 -4 0 -5 -9
-2 -20 3 -11 1 -26 -5 -33 -16 -19 -15 -360 1 -350 8 4 8 2 -1 -9 -9 -11 -10
-18 -2 -23 5 -3 10 -24 10 -45 0 -21 4 -41 9 -44 10 -7 9 -25 -2 -43 -5 -8 -4
-13 2 -13 6 0 11 -13 11 -28 0 -15 6 -34 13 -41 10 -11 9 -12 -1 -6 -12 6 -12
3 -1 -16 7 -13 12 -30 11 -36 -2 -7 5 -13 15 -14 10 0 13 -3 6 -5 -8 -4 -9
-13 -3 -30 5 -13 6 -24 2 -24 -4 0 -1 -4 6 -9 7 -4 14 -17 15 -29 0 -12 8 -24
16 -27 13 -5 13 -7 1 -15 -12 -8 -12 -10 3 -16 9 -3 17 -10 17 -16 0 -5 -5 -6
-11 -3 -6 4 -5 -2 2 -13 7 -12 16 -19 19 -17 3 2 7 -6 7 -17 1 -12 7 -24 13
-28 7 -4 11 -10 11 -14 -3 -19 0 -27 7 -22 4 2 9 -5 9 -17 1 -12 7 -23 12 -25
5 -2 7 -10 4 -18 -3 -8 1 -14 11 -14 9 0 16 -7 16 -15 0 -9 9 -25 19 -37 11
-11 17 -27 14 -35 -3 -8 0 -13 8 -11 8 2 13 -3 11 -11 -2 -9 3 -11 14 -7 14 5
15 4 4 -9 -10 -12 -10 -15 3 -15 13 0 33 -43 29 -62 -1 -4 6 -4 15 -1 12 5 15
2 10 -10 -3 -9 -1 -19 5 -23 7 -5 8 -2 4 7 -4 8 0 5 9 -6 9 -11 21 -19 26 -17
6 1 7 -2 4 -8 -4 -6 1 -17 11 -25 11 -7 19 -19 19 -27 1 -7 7 -12 14 -10 9 2
11 -3 7 -14 -4 -12 -2 -15 9 -10 8 3 14 2 14 -2 -3 -20 3 -32 16 -32 8 0 15
-7 15 -16 0 -8 5 -12 10 -9 6 3 10 0 10 -8 0 -7 13 -23 30 -35 17 -13 30 -29
30 -37 0 -14 13 -20 34 -16 5 1 4 -5 -3 -13 -11 -13 -9 -15 9 -11 18 4 20 2 9
-11 -10 -12 -9 -13 6 -8 13 5 16 4 11 -4 -6 -11 5 -17 27 -13 4 0 7 -5 7 -13
0 -8 10 -18 21 -21 17 -6 19 -9 8 -16 -11 -7 -9 -9 6 -9 11 0 27 -9 35 -19 7
-11 18 -17 24 -14 6 4 5 -1 -3 -10 -12 -15 -11 -17 6 -17 10 0 25 -9 33 -19 7
-11 17 -18 22 -15 4 3 8 -3 8 -13 0 -14 2 -15 9 -4 7 11 10 9 16 -8 3 -11 11
-21 16 -21 16 0 39 -27 31 -35 -4 -5 1 -5 11 -2 15 6 22 -3 18 -25 0 -5 2 -7
7 -6 16 4 52 -14 52 -28 0 -8 3 -13 8 -13 19 3 32 -2 29 -13 -1 -7 5 -13 13
-13 8 0 14 -7 12 -15 -3 -11 -1 -11 13 0 9 7 15 9 14 4 -4 -22 2 -33 16 -28
10 4 15 0 15 -11 0 -9 5 -13 10 -10 6 3 13 -1 16 -9 3 -9 12 -16 19 -16 7 0
15 -7 19 -15 3 -8 11 -14 18 -13 7 2 12 -3 10 -10 -1 -8 2 -10 8 -7 6 4 19 -3
29 -14 10 -12 24 -21 30 -21 7 0 9 -5 5 -12 -4 -6 -3 -8 4 -4 6 3 21 -4 33
-16 12 -13 18 -16 14 -8 -4 8 1 6 12 -5 31 -30 67 -60 74 -60 14 0 57 -40 52
-48 -3 -5 4 -4 16 2 18 10 20 9 14 -5 -4 -12 -3 -15 5 -10 7 4 12 2 12 -3 0
-6 7 -11 16 -11 10 0 14 -6 10 -15 -3 -8 -2 -14 2 -13 13 4 52 -13 52 -23 0
-5 7 -9 15 -9 7 0 19 -8 24 -18 6 -9 11 -13 11 -8 0 5 8 0 18 -11 9 -11 25
-19 34 -17 11 1 15 -3 11 -12 -3 -8 1 -14 10 -14 9 0 23 -10 31 -22 9 -12 16
-19 16 -14 0 5 9 -1 20 -14 11 -13 20 -20 20 -16 0 4 6 1 14 -6 8 -7 11 -17 8
-22 -3 -5 2 -7 11 -3 11 4 17 1 17 -8 0 -8 7 -15 15 -15 8 0 15 -4 15 -8 0 -5
11 -15 25 -22 13 -7 22 -16 20 -20 -3 -5 6 -11 20 -14 14 -4 25 -11 25 -17 0
-6 -6 -7 -12 -4 -7 4 -4 -1 6 -9 11 -9 26 -16 33 -16 7 0 13 -10 13 -22 0 -19
2 -20 10 -8 8 13 10 12 10 -2 0 -10 5 -18 10 -18 6 0 10 -7 10 -16 0 -8 5 -12
10 -9 6 3 10 1 10 -5 0 -6 4 -8 10 -5 5 3 10 -4 10 -15 0 -16 5 -20 15 -16 8
3 14 2 13 -2 -4 -15 14 -52 23 -47 5 4 9 1 9 -6 0 -6 11 -22 26 -35 14 -13 22
-24 17 -24 -4 0 3 -7 15 -16 12 -8 22 -22 22 -30 0 -8 4 -13 8 -10 11 7 54
-69 44 -78 -4 -4 0 -6 8 -4 8 2 14 -3 13 -9 -2 -7 2 -13 8 -13 5 0 7 -4 4 -10
-3 -5 -1 -10 4 -10 6 0 11 -10 11 -22 0 -19 2 -20 10 -8 8 12 10 11 10 -7 0
-13 5 -23 11 -23 5 0 7 -5 4 -10 -3 -5 -2 -10 4 -10 6 0 14 -12 17 -28 4 -15
11 -30 16 -33 5 -3 10 -16 11 -27 1 -12 5 -22 9 -22 4 0 8 -11 8 -25 0 -14 6
-25 13 -25 7 0 13 -8 13 -17 2 -38 14 -77 26 -85 10 -6 10 -8 1 -8 -7 0 -13
-5 -13 -11 0 -5 5 -7 10 -4 10 6 14 -6 11 -38 -1 -9 3 -17 9 -17 6 0 8 -5 5
-10 -3 -6 -2 -10 3 -10 5 0 7 -14 4 -30 -2 -17 1 -36 6 -43 6 -7 11 -22 11
-32 -1 -78 6 -135 15 -135 6 0 4 -5 -4 -11 -11 -8 -12 -12 -3 -16 10 -3 10
-10 2 -25 -9 -16 -8 -19 3 -12 11 6 11 5 -1 -9 -11 -14 -11 -17 0 -17 11 0 11
-2 1 -8 -14 -9 -19 -102 -7 -122 5 -9 4 -11 -3 -6 -11 7 -14 3 -16 -26 -1 -7
-5 -16 -11 -20 -6 -5 -5 -8 3 -8 9 0 10 -5 3 -19 -6 -10 -8 -21 -4 -24 3 -4 0
-13 -6 -21 -7 -8 -11 -23 -9 -33 2 -10 -3 -24 -12 -31 -13 -11 -13 -12 0 -6
13 7 13 5 2 -9 -8 -9 -11 -21 -7 -27 3 -5 1 -10 -5 -10 -6 0 -8 -5 -5 -10 3
-6 2 -10 -3 -10 -5 0 -12 -15 -16 -32 -5 -26 -9 -30 -16 -18 -13 20 -13 4 0
-20 8 -15 6 -21 -7 -29 -10 -6 -14 -11 -9 -11 6 0 1 -7 -10 -16 -10 -8 -14
-13 -7 -10 8 4 7 -3 -3 -23 -8 -16 -22 -32 -30 -35 -9 -3 -14 -11 -12 -18 2
-6 -6 -22 -19 -36 -12 -13 -20 -29 -16 -35 4 -7 0 -8 -11 -4 -13 5 -17 3 -13
-7 3 -8 -1 -17 -9 -20 -8 -3 -14 -12 -14 -21 0 -8 -7 -15 -15 -15 -10 0 -15
-7 -13 -17 2 -12 -3 -17 -14 -15 -22 4 -24 -24 -3 -44 13 -14 17 -14 31 0 19
19 28 21 18 4 -4 -7 5 -2 21 12 16 14 25 19 21 13 -4 -7 -3 -13 2 -13 6 0 13
7 16 16 4 10 14 14 26 11 11 -3 18 0 17 6 -1 6 12 16 29 22 17 5 38 16 46 22
8 7 18 10 22 6 4 -4 4 1 0 11 -6 15 -4 17 16 11 15 -5 20 -4 16 4 -4 6 0 11 8
11 9 0 16 5 16 10 0 6 3 9 8 9 19 -3 33 2 27 11 -3 6 1 7 9 4 9 -3 16 -2 16 4
0 5 16 17 35 26 19 9 35 22 35 28 0 5 6 8 14 5 10 -4 12 0 9 14 -4 15 -2 18
12 12 13 -4 16 -3 11 5 -6 10 6 17 18 10 2 -2 15 11 27 27 32 41 64 73 54 55
-4 -8 1 -6 12 5 11 11 18 27 15 35 -5 13 -3 13 10 2 13 -11 16 -10 14 5 0 10
5 17 12 15 8 -1 11 2 7 8 -3 5 -1 10 5 10 6 0 8 5 5 10 -3 6 0 10 7 10 8 0 22
13 31 30 10 16 26 30 35 30 14 0 15 2 2 10 -12 8 -12 10 3 16 9 3 15 10 12 14
-3 5 4 18 16 29 12 11 18 24 14 30 -3 6 1 11 9 11 9 0 16 8 16 19 0 10 7 21
15 25 8 3 14 11 13 18 -2 7 3 12 10 10 8 -1 11 2 7 8 -4 6 1 23 11 38 10 15
20 38 21 51 1 13 6 27 10 30 12 9 36 54 25 47 -6 -3 -5 5 1 19 7 14 17 25 22
25 6 0 3 5 -5 10 -11 7 -11 10 -2 10 7 0 10 5 7 10 -3 6 -1 10 5 10 6 0 8 5 5
10 -4 6 -1 17 5 25 7 8 10 24 7 35 -3 11 -1 20 5 20 5 0 6 4 3 10 -3 5 0 10 7
10 9 0 9 3 -2 10 -8 5 -10 10 -4 10 5 0 11 19 13 42 1 23 6 47 11 53 5 6 7 23
6 38 -2 15 0 27 3 27 12 0 1 413 -12 429 -9 12 -9 13 0 7 9 -5 11 -2 7 8 -3 9
-10 16 -16 16 -5 0 -6 6 -2 12 12 19 12 48 1 41 -6 -4 -8 0 -4 10 4 10 1 17
-6 17 -8 0 -6 4 3 10 8 5 10 10 4 10 -7 0 -14 9 -17 20 -3 11 0 20 6 20 8 0 8
3 0 11 -6 6 -9 18 -6 27 5 11 3 13 -6 7 -10 -5 -11 -2 -6 14 3 11 2 21 -3 21
-5 0 -8 11 -7 25 2 14 -1 23 -6 19 -5 -3 -9 9 -9 26 0 21 -4 29 -12 24 -7 -4
-8 -3 -4 5 4 6 2 19 -6 28 -11 14 -11 15 0 9 11 -7 11 -4 1 12 -7 12 -16 19
-20 16 -4 -2 -5 5 -2 16 5 21 -17 80 -30 80 -5 0 -5 5 -2 10 3 6 1 10 -5 10
-6 0 -8 5 -5 10 3 6 0 10 -7 10 -11 0 -10 2 0 9 11 7 10 9 -3 15 -9 3 -13 11
-9 17 4 7 3 9 -4 5 -6 -3 -13 -2 -17 4 -3 5 -1 10 4 10 8 0 7 7 -1 19 -7 11
-15 18 -19 15 -5 -2 -6 4 -4 15 2 14 -1 18 -10 15 -10 -4 -13 0 -10 14 2 10
-5 25 -16 33 -10 7 -19 22 -19 32 0 11 -4 15 -12 11 -8 -5 -9 -2 -5 9 6 15 -3
21 -24 19 -4 -1 -5 8 -2 18 3 12 0 20 -6 20 -7 0 -9 5 -5 12 4 7 3 8 -4 4 -13
-8 -36 30 -27 44 3 5 -4 7 -15 5 -11 -2 -20 0 -20 6 0 5 6 9 13 10 6 0 2 4
-11 10 -13 5 -21 13 -18 18 6 9 -22 26 -37 22 -4 -1 -3 8 4 20 6 12 7 19 2 16
-5 -3 -15 -2 -23 4 -13 7 -13 9 0 9 13 0 13 1 0 10 -9 6 -17 5 -22 -3 -5 -8
-8 -5 -8 8 0 11 -13 31 -29 45 -17 13 -28 27 -25 32 3 4 -2 8 -10 8 -9 0 -16
7 -16 17 0 9 -3 14 -6 10 -8 -8 -34 18 -34 33 0 6 -4 8 -10 5 -5 -3 -10 1 -10
10 0 11 -5 15 -15 11 -8 -3 -14 -2 -13 2 3 14 -14 42 -23 36 -5 -3 -9 -1 -9 5
0 5 -9 12 -20 16 -11 3 -19 9 -19 13 3 17 -2 32 -8 31 -21 -3 -33 3 -33 17 0
8 -4 12 -10 9 -9 -5 -14 7 -11 27 0 3 -11 5 -24 3 -13 -1 -22 1 -20 5 6 10
-42 50 -51 42 -4 -4 -5 -2 -1 3 3 6 2 17 -4 25 -7 13 -9 13 -9 0 -1 -8 -8 -1
-16 15 -8 17 -12 21 -9 10 5 -17 3 -17 -13 4 -13 15 -24 21 -32 16 -10 -6 -12
-4 -7 8 4 10 -1 18 -14 22 -10 4 -19 12 -19 18 0 9 -3 8 -8 -1 -6 -9 -12 -6
-22 13 -7 13 -21 27 -32 31 -10 3 -18 10 -18 15 0 5 -7 9 -15 9 -8 0 -15 5
-15 10 0 6 -5 10 -11 10 -7 0 -20 9 -29 21 -10 11 -27 21 -38 22 -12 0 -20 4
-20 7 2 20 -4 29 -17 24 -8 -4 -15 -1 -15 6 0 6 -5 8 -10 5 -6 -3 -10 1 -10 9
0 8 -9 18 -20 21 -11 3 -20 11 -20 16 0 5 -7 9 -16 9 -9 0 -28 12 -41 26 -14
15 -30 23 -39 20 -8 -3 -12 -2 -9 4 3 6 1 10 -5 10 -6 0 -8 4 -5 10 3 5 0 7
-8 4 -8 -3 -18 0 -23 7 -5 8 -3 10 6 4 8 -5 11 -4 7 3 -4 5 -15 8 -26 5 -18
-5 -36 20 -26 36 2 4 -2 8 -10 8 -8 0 -12 -4 -9 -9 9 -15 -8 -8 -25 10 -9 9
-36 31 -61 47 -25 16 -48 34 -52 40 -4 5 -8 6 -8 2 0 -4 -6 -2 -14 5 -8 7 -12
16 -9 20 2 4 -2 5 -10 2 -8 -3 -17 2 -20 10 -4 9 -13 16 -22 16 -8 0 -15 3
-15 8 0 4 -14 13 -30 20 -17 8 -28 17 -25 22 3 4 -6 11 -20 14 -14 4 -24 12
-22 19 1 6 -4 11 -10 10 -7 -2 -13 2 -13 8 0 5 -5 7 -10 4 -6 -3 -10 1 -10 10
0 9 -5 13 -10 10 -5 -3 -10 -1 -10 4 0 6 -5 11 -10 11 -6 0 -23 12 -37 28 -14
15 -22 20 -17 12 6 -11 4 -10 -7 2 -9 9 -20 14 -24 10 -3 -4 -6 -2 -5 3 4 18
0 35 -7 34 -21 -3 -33 3 -33 17 0 9 -5 12 -12 8 -8 -5 -9 -2 -4 11 5 15 4 16
-9 5 -13 -11 -16 -11 -13 1 2 8 -4 13 -14 13 -10 -1 -16 1 -14 5 2 3 -2 15
-10 26 -8 10 -14 16 -14 12 0 -5 -6 -2 -14 5 -8 7 -12 16 -9 21 2 4 -3 7 -12
7 -9 0 -13 5 -10 10 3 6 1 10 -5 10 -15 0 -41 26 -33 34 4 3 -1 6 -10 6 -10 0
-17 7 -17 16 0 8 -4 13 -8 10 -4 -2 -14 9 -21 25 -7 16 -19 29 -27 29 -9 0
-13 4 -9 9 3 6 -7 21 -22 35 -15 14 -23 26 -18 26 5 0 -1 7 -14 16 -15 11 -21
23 -18 35 3 11 1 17 -3 14 -10 -6 -31 51 -22 61 4 4 1 4 -5 0 -9 -5 -13 0 -13
14 0 13 -4 19 -11 14 -8 -5 -10 5 -7 31 3 29 1 39 -12 42 -12 3 -15 13 -12 34
3 17 0 29 -7 29 -7 0 -11 21 -11 54 0 30 -5 58 -10 61 -8 5 -7 12 1 22 10 11
10 16 0 23 -11 6 -11 9 0 13 12 4 11 7 -1 16 -8 6 -10 11 -4 11 7 0 12 25 13
61 1 34 6 70 12 80 5 11 7 19 3 19 -3 0 1 12 11 26 11 18 12 24 4 18 -12 -7
-12 -5 -1 9 8 9 11 21 7 27 -3 5 -1 10 5 10 6 0 8 5 5 10 -3 6 -1 10 6 10 7 0
9 3 6 7 -4 3 2 12 13 20 11 7 17 20 14 28 -4 8 1 18 10 21 9 3 13 10 10 15 -3
5 0 9 6 9 6 0 8 5 5 10 -3 6 -1 10 4 10 6 0 11 7 11 15 0 17 34 37 45 27 5 -4
5 -1 0 6 -5 9 4 24 26 45 19 17 33 35 31 41 -2 5 5 3 14 -5 10 -8 15 -9 11 -3
-9 15 19 38 34 28 8 -4 9 -3 5 4 -4 7 3 14 18 18 13 3 27 12 30 21 3 8 10 11
16 8 5 -3 10 -1 10 5 0 6 5 8 10 5 6 -3 10 -1 10 5 0 6 5 8 10 5 6 -3 10 -1
10 4 0 6 8 11 17 11 9 0 27 10 41 23 13 12 23 18 22 12 -5 -23 1 -28 13 -11 8
11 27 17 56 18 26 0 45 6 48 14 4 10 10 11 25 3 16 -9 19 -8 13 2 -6 9 -3 11
8 6 10 -3 17 -2 17 3 0 6 5 10 11 10 5 0 7 -6 3 -12 -6 -9 -3 -9 9 0 9 8 21
11 26 8 5 -4 12 -2 16 4 4 6 12 7 23 1 9 -5 26 -5 39 0 15 6 23 5 23 -2 0 -8
6 -7 16 2 13 10 17 10 24 -1 6 -10 13 -11 22 -4 14 11 54 11 65 1 3 -4 14 -2
24 4 13 7 19 6 19 -1 0 -7 6 -8 17 -1 10 5 26 5 40 0 13 -5 23 -6 23 -3 0 4 6
2 13 -3 6 -5 19 -9 27 -8 8 0 18 -4 22 -10 5 -6 8 -5 8 3 0 10 6 10 28 -1 15
-8 33 -12 40 -10 6 3 12 -1 12 -8 0 -7 3 -9 7 -6 3 4 13 1 21 -6 13 -10 14 -9
7 3 -7 11 -3 11 18 -3 15 -10 32 -15 37 -12 6 3 10 -1 10 -9 0 -10 8 -15 23
-13 15 1 21 -3 19 -13 -2 -8 -1 -12 3 -8 4 3 25 -2 48 -12 23 -10 45 -16 49
-14 4 3 5 -2 2 -11 -4 -10 -2 -15 7 -13 8 2 13 -3 11 -10 -1 -8 1 -11 6 -8 11
7 64 -29 55 -38 -4 -4 1 -4 12 0 15 6 17 4 12 -10 -4 -9 -3 -15 2 -12 8 6 71
-45 71 -58 0 -12 27 -36 41 -36 7 0 9 -3 6 -6 -3 -4 7 -19 24 -35 16 -15 30
-30 29 -33 -1 -21 1 -26 10 -21 9 5 12 -1 9 -21 0 -3 9 -14 20 -23 11 -10 17
-22 13 -26 -4 -5 0 -6 9 -3 9 4 16 1 16 -8 0 -7 -5 -11 -11 -8 -6 3 0 -4 14
-16 14 -12 18 -18 10 -14 -10 5 -9 0 4 -14 11 -12 15 -22 11 -22 -5 0 12 -19
38 -41 26 -23 44 -46 40 -52 -3 -6 -1 -7 5 -3 7 4 12 2 12 -3 0 -6 7 -11 15
-11 9 0 18 -6 21 -14 3 -8 14 -13 25 -11 10 2 19 0 19 -6 0 -5 7 -9 15 -9 8 0
15 -5 15 -11 0 -8 5 -8 15 1 11 9 15 9 15 1 0 -7 5 -9 10 -6 6 3 10 2 10 -3 0
-6 10 -8 22 -4 12 3 19 1 15 -5 -3 -5 0 -10 8 -10 8 0 15 3 15 7 0 9 52 6 68
-4 7 -4 10 -2 7 6 -5 13 4 16 52 20 7 1 15 8 18 17 5 13 8 13 15 2 7 -12 11
-12 24 1 8 9 12 19 8 23 -4 5 -1 5 6 1 8 -5 19 -1 28 10 9 11 12 13 8 5 -4 -8
19 10 51 41 43 42 56 61 51 75 -4 9 -4 14 0 11 8 -9 33 14 27 25 -3 4 0 14 6
20 5 7 11 30 13 51 1 20 6 40 10 42 4 3 8 10 8 15 0 6 -6 7 -12 3 -9 -5 -9 -2
1 9 11 14 11 20 1 32 -11 13 -10 14 6 8 16 -6 17 -4 7 8 -7 9 -9 20 -3 29 6
10 4 21 -7 33 -13 13 -14 20 -5 29 16 16 16 41 0 32 -10 -6 -10 -4 -2 7 15 19
15 120 1 138 -8 10 -8 13 -1 8 7 -4 11 5 12 25 1 24 -2 28 -8 18 -6 -9 -10
-10 -10 -3 0 6 4 15 10 18 15 9 12 38 -2 29 -10 -6 -10 -4 0 7 16 17 16 49 0
49 -9 0 -8 4 2 10 13 8 13 13 2 31 -8 11 -9 18 -4 15 5 -3 10 5 10 19 0 15 -5
22 -12 19 -6 -3 -3 1 6 8 15 13 15 15 0 25 -14 9 -15 13 -4 24 6 7 12 19 12
27 0 8 -5 10 -12 6 -10 -6 -10 -4 0 7 6 7 12 21 12 31 0 10 -6 18 -12 18 -9 0
-9 3 -3 8 16 10 17 62 3 80 -7 9 -8 13 -2 9 7 -4 11 5 12 25 1 24 -2 28 -8 18
-6 -9 -10 -10 -10 -3 0 6 5 15 10 18 6 3 10 13 10 21 0 10 -5 12 -12 8 -10 -6
-10 -4 -2 7 15 20 26 51 15 45 -5 -3 -12 1 -15 10 -3 8 -2 12 4 9 5 -3 8 9 6
30 -1 19 1 40 5 47 5 7 1 20 -8 31 -13 13 -14 20 -5 29 16 16 15 41 0 32 -10
-6 -10 -4 0 7 6 7 12 19 12 27 0 8 -5 10 -12 6 -10 -6 -10 -4 0 7 6 7 12 19
12 27 0 8 -5 10 -12 6 -9 -6 -9 -3 0 9 8 9 11 21 7 27 -3 5 -1 10 6 10 7 0 4
7 -7 16 -10 8 -14 13 -8 10 7 -3 11 9 11 34 0 22 -5 40 -11 40 -6 0 -5 4 3 9
11 7 11 13 0 32 -11 22 -11 23 5 10 15 -12 16 -12 10 5 -4 10 -12 25 -18 33
-9 12 -8 13 3 6 11 -6 13 -3 9 12 -3 12 -2 27 3 34 4 7 5 18 1 23 -10 17 -8
76 3 77 5 0 1 4 -10 9 -11 5 -14 9 -8 9 14 1 13 27 -1 50 -7 11 -5 13 8 8 11
-4 15 -3 11 4 -4 6 -7 26 -7 45 0 19 -5 34 -11 34 -8 0 -7 3 1 9 9 5 12 22 9
49 -2 24 0 42 6 42 5 0 4 6 -2 14 -9 11 -8 15 5 20 9 3 14 13 11 20 -3 8 1 17
9 20 9 3 13 10 9 15 -3 5 0 13 6 17 8 4 9 3 5 -4 -4 -7 -2 -12 3 -12 6 0 11 5
11 10 0 6 7 10 15 10 8 0 15 8 15 18 0 14 2 15 10 2 8 -13 10 -12 10 3 0 10 5
15 10 12 6 -3 10 0 10 7 0 9 3 9 10 -2 8 -13 13 -9 12 10 0 3 9 6 21 6 33 2
78 14 100 25 15 9 18 8 12 -2 -5 -7 -4 -10 2 -6 22 14 73 17 73 5 0 -6 6 -3
14 7 12 17 16 18 32 5 10 -8 15 -10 11 -3 -9 15 16 11 37 -6 14 -12 16 -12 11
1 -5 11 2 14 32 10 21 -2 53 -4 70 -4 21 0 31 -4 26 -12 -4 -7 -1 -7 7 1 9 9
19 9 33 2 15 -8 18 -8 12 1 -5 9 -3 9 11 2 11 -5 28 -8 39 -6 11 1 26 -3 35
-10 9 -8 23 -11 35 -6 13 5 29 1 46 -11 14 -10 29 -15 33 -11 11 10 30 9 37
-1 4 -5 18 -9 33 -9 14 0 26 -5 26 -10 0 -5 4 -7 9 -4 5 3 12 -1 15 -10 4 -11
10 -13 19 -7 15 12 61 -9 49 -23 -4 -4 0 -3 9 4 14 10 18 9 23 -5 6 -15 8 -15
16 -3 8 13 10 13 10 0 0 -9 10 -16 22 -17 13 -1 24 -7 26 -13 2 -5 12 -10 23
-10 10 0 19 -5 19 -11 0 -5 5 -7 10 -4 6 3 10 1 10 -6 0 -7 3 -9 7 -6 3 4 12
-1 20 -11 9 -10 11 -11 7 -2 -7 13 -5 13 9 1 9 -7 17 -10 17 -5 0 5 7 0 15
-10 8 -11 15 -16 15 -11 0 5 7 -1 16 -13 8 -12 23 -22 32 -22 10 0 24 -9 32
-20 8 -11 21 -20 29 -20 7 0 21 -8 30 -17 9 -10 25 -23 36 -30 11 -6 19 -17
17 -23 -2 -8 3 -10 13 -7 9 4 21 -3 31 -18 9 -13 25 -27 36 -31 12 -3 17 -11
14 -20 -3 -8 -2 -12 3 -9 5 3 12 1 16 -5 4 -6 11 -8 16 -5 5 4 9 -1 9 -10 0
-9 5 -13 10 -10 6 3 10 0 10 -7 0 -7 11 -22 25 -32 13 -10 22 -22 19 -27 -5
-8 10 -13 29 -10 4 0 7 -6 7 -15 0 -9 -5 -12 -12 -8 -7 5 -8 3 -4 -5 5 -7 11
-10 14 -7 9 9 32 -15 25 -27 -3 -6 -1 -7 5 -3 7 4 12 3 12 -3 0 -16 46 -61 55
-53 5 4 6 0 2 -10 -4 -10 3 -23 18 -34 13 -10 22 -21 19 -26 -3 -4 0 -8 6 -8
6 0 8 -4 5 -10 -3 -5 -1 -10 5 -10 6 0 8 -5 5 -10 -4 -6 -1 -9 7 -8 7 2 12 -3
10 -9 -1 -7 6 -13 15 -13 15 0 16 -2 3 -10 -11 -7 -11 -10 -2 -10 7 0 11 -4 8
-9 -3 -5 4 -11 16 -14 18 -5 19 -8 8 -21 -10 -13 -10 -16 4 -16 9 0 16 -7 16
-16 0 -8 4 -13 8 -10 5 3 9 -1 10 -9 1 -8 3 -22 4 -30 1 -8 8 -15 15 -15 8 0
12 -4 9 -9 -4 -5 -2 -11 3 -13 5 -1 11 -14 13 -28 1 -14 11 -32 21 -41 9 -9
17 -28 17 -43 0 -16 4 -25 10 -21 6 4 10 -5 10 -20 0 -21 4 -26 16 -21 14 5
15 4 4 -9 -8 -9 -8 -15 -2 -15 6 0 9 -9 7 -20 -2 -12 2 -20 10 -20 8 0 12 -9
11 -25 -2 -13 1 -22 5 -19 5 3 9 -4 9 -15 0 -10 6 -22 13 -24 8 -4 8 -6 -2 -6
-11 -1 -10 -5 5 -16 14 -11 16 -15 4 -15 -12 0 -10 -4 4 -15 14 -11 16 -15 5
-15 -10 0 -11 -2 -2 -8 7 -5 14 -20 15 -35 1 -15 6 -27 11 -27 4 0 5 -4 2 -10
-3 -5 0 -10 7 -10 9 0 9 -3 -2 -10 -8 -5 -10 -10 -3 -10 6 0 9 -9 6 -20 -3
-11 -1 -20 5 -20 5 0 12 -9 15 -20 3 -11 0 -20 -5 -20 -6 0 -5 -6 2 -15 7 -8
9 -15 5 -15 -4 0 -3 -6 3 -13 6 -7 12 -34 13 -60 2 -26 6 -47 10 -47 4 0 6
-11 4 -25 -1 -14 3 -25 9 -25 6 0 5 -4 -3 -9 -7 -5 -9 -11 -4 -14 5 -4 8 -20
5 -38 -4 -25 -2 -30 9 -24 11 7 11 5 0 -9 -13 -15 -13 -19 0 -27 12 -7 12 -9
-1 -9 -13 0 -13 -1 0 -10 13 -9 13 -11 0 -20 -8 -5 -10 -10 -4 -10 6 0 11 -27
11 -65 1 -35 4 -69 8 -75 3 -5 2 -10 -3 -10 -5 0 -7 -16 -5 -37 2 -23 -1 -39
-9 -44 -10 -7 -10 -9 2 -9 13 0 13 -1 0 -11 -12 -8 -12 -12 -2 -16 10 -4 10
-8 0 -21 -10 -12 -10 -14 0 -8 15 9 16 -6 0 -22 -6 -6 -11 -34 -9 -63 1 -28
-2 -56 -8 -62 -5 -7 -8 -29 -7 -49 1 -21 -2 -38 -7 -38 -4 0 -5 -4 -2 -10 3
-5 1 -10 -5 -10 -6 0 -10 -6 -9 -12 4 -33 -2 -89 -9 -84 -4 2 -9 -7 -10 -21
-1 -14 -7 -32 -13 -39 -6 -8 -8 -14 -3 -14 5 0 2 -5 -6 -10 -13 -8 -12 -10 3
-10 15 0 16 -2 5 -14 -7 -8 -17 -11 -22 -8 -5 3 -6 0 -2 -6 3 -6 2 -13 -4 -17
-6 -4 -8 -11 -4 -16 3 -5 0 -17 -8 -26 -11 -14 -11 -16 2 -8 13 8 13 6 2 -8
-8 -9 -11 -21 -7 -27 3 -5 -2 -10 -12 -10 -15 0 -16 -2 -3 -10 10 -6 11 -10 3
-10 -7 0 -13 -7 -13 -16 0 -8 -4 -12 -10 -9 -6 4 -7 -1 -3 -11 5 -12 3 -15 -6
-9 -10 6 -11 3 -2 -14 10 -17 9 -21 -4 -21 -9 0 -14 -4 -11 -9 3 -5 -1 -12
-10 -15 -9 -4 -14 -13 -10 -21 3 -9 -1 -18 -9 -21 -7 -3 -12 -11 -9 -18 2 -6
-3 -20 -12 -31 -8 -11 -12 -14 -8 -6 5 9 3 12 -4 7 -9 -5 -9 -13 -1 -28 8 -15
8 -19 0 -14 -6 4 -14 -1 -18 -11 -4 -10 -16 -26 -28 -36 -11 -10 -14 -15 -7
-12 11 6 11 3 0 -14 -7 -12 -16 -21 -20 -21 -5 0 -8 -7 -8 -15 0 -8 -4 -15 -9
-15 -5 0 -11 -9 -14 -21 -4 -14 -10 -18 -19 -13 -10 6 -10 4 1 -9 12 -15 12
-17 -1 -12 -9 4 -19 -6 -28 -29 -11 -30 -16 -34 -29 -23 -12 10 -13 9 -7 -1 9
-16 -12 -44 -27 -35 -6 4 -7 1 -2 -6 4 -8 -6 -25 -29 -46 -21 -19 -38 -37 -39
-42 -1 -4 -6 -7 -11 -5 -5 2 -6 -4 -2 -13 3 -9 2 -13 -4 -10 -6 3 -13 -1 -16
-9 -3 -9 -10 -13 -15 -10 -5 3 -9 0 -9 -7 0 -15 -47 -59 -54 -51 -3 3 -6 0 -6
-7 0 -7 -5 -9 -12 -5 -7 5 -9 2 -5 -9 4 -10 -1 -18 -13 -22 -30 -10 -71 -46
-64 -57 4 -7 2 -8 -5 -4 -6 4 -14 0 -17 -8 -3 -9 -10 -14 -14 -11 -4 3 -11 -2
-14 -11 -3 -8 -10 -13 -15 -10 -5 3 -12 -1 -15 -10 -3 -9 -13 -14 -21 -11 -9
4 -12 1 -9 -7 3 -8 0 -17 -7 -22 -8 -5 -10 -3 -5 7 4 8 -2 4 -13 -9 -11 -13
-29 -24 -40 -25 -11 0 -19 -5 -18 -11 1 -5 -16 -19 -38 -32 -22 -12 -46 -28
-52 -34 -7 -6 -13 -8 -13 -4 0 4 -9 -1 -19 -10 -11 -10 -25 -15 -30 -11 -6 3
-11 2 -11 -4 0 -5 -9 -13 -20 -16 -11 -4 -18 -11 -15 -16 3 -5 -2 -6 -11 -2
-13 5 -15 3 -9 -7 5 -9 4 -11 -3 -6 -6 4 -22 0 -35 -9 -13 -8 -27 -12 -30 -8
-4 3 -7 0 -7 -7 0 -7 -3 -10 -7 -7 -3 4 -12 -1 -20 -11 -9 -10 -11 -11 -7 -2
7 13 5 13 -9 1 -9 -7 -17 -10 -17 -5 0 4 -7 -1 -15 -12 -13 -16 -16 -17 -25
-4 -8 13 -10 13 -10 -2 0 -16 -16 -23 -47 -19 -6 1 -15 -4 -19 -10 -5 -8 -3
-9 6 -4 8 5 11 4 6 -3 -4 -6 -14 -8 -23 -5 -9 4 -21 -1 -29 -12 -8 -10 -14
-14 -14 -8 0 7 -11 7 -35 -1 -19 -6 -35 -14 -35 -18 0 -4 -9 -5 -20 -3 -11 2
-20 -1 -20 -6 0 -6 -4 -8 -9 -4 -5 3 -13 1 -16 -5 -5 -8 -11 -7 -21 1 -13 11
-19 5 -15 -15 1 -5 -4 -4 -13 3 -11 9 -16 9 -22 0 -5 -8 -3 -10 7 -4 8 5 10 4
6 0 -12 -14 -38 -15 -31 -2 5 9 4 9 -6 0 -7 -6 -19 -9 -28 -6 -11 5 -13 3 -7
-7 6 -10 3 -12 -13 -8 -12 4 -22 3 -22 0 0 -4 -20 -7 -45 -6 -25 0 -45 -4 -45
-9 0 -5 -6 -7 -12 -4 -7 2 -22 1 -33 -3 -11 -4 -28 -4 -37 1 -10 6 -19 5 -23
-2 -4 -6 -13 -8 -20 -5 -7 2 -16 -2 -19 -10 -4 -11 -10 -12 -25 -4 -14 7 -22
7 -26 0 -5 -8 -11 -8 -19 -1 -9 7 -16 7 -24 -1 -7 -7 -12 -8 -12 -2 0 11 -51
11 -69 0 -5 -4 -13 -2 -16 4 -5 8 -11 8 -20 0 -8 -7 -19 -9 -24 -6 -5 4 -12 2
-15 -3 -4 -5 -2 -12 4 -16 5 -3 10 -15 10 -26 0 -20 15 -26 25 -9 5 8 11 8 19
1 7 -6 15 -8 19 -5 9 9 57 12 51 3 -5 -9 25 -14 55 -10 8 2 10 -2 5 -11 -6
-11 -5 -11 8 0 11 9 18 10 23 2 4 -7 12 -7 25 0 13 7 21 7 25 0 5 -8 11 -8 20
0 10 8 15 8 20 0 5 -8 10 -8 20 0 10 8 15 8 20 0 5 -8 11 -8 21 1 11 9 14 9
14 0 0 -9 5 -9 20 -1 15 8 20 8 20 -1 0 -9 3 -9 14 0 10 9 16 9 21 1 5 -8 10
-8 20 0 9 8 15 8 20 0 4 -6 12 -7 24 -1 10 6 23 6 31 1 8 -5 18 -6 22 -4 17
11 48 12 48 2 0 -7 4 -7 13 -1 6 6 24 10 39 9 14 -1 24 2 21 7 -2 4 16 7 41 6
25 -2 49 0 52 4 4 4 13 2 21 -4 8 -7 13 -7 13 -2 0 6 14 9 31 7 22 -3 28 0 23
9 -5 8 -2 7 9 -2 15 -12 20 -11 35 2 14 13 21 14 30 5 9 -9 12 -9 12 -1 0 7
10 10 26 7 15 -3 23 -1 20 5 -4 5 2 10 11 10 25 0 108 9 108 11 0 1 8 3 18 6
26 6 40 10 57 17 39 14 50 15 55 7 9 -14 37 1 31 17 -5 11 -2 11 15 2 16 -8
23 -8 29 1 4 7 12 10 18 6 6 -4 17 0 24 7 7 8 21 12 32 9 14 -4 17 -2 11 8 -5
9 -4 11 4 6 6 -4 19 -2 28 6 14 11 16 11 9 0 -7 -11 -4 -12 12 -3 11 6 23 16
25 23 4 10 7 10 15 0 7 -11 12 -10 26 3 10 11 16 12 16 4 0 -8 5 -7 18 3 18
16 61 33 75 30 4 -1 7 3 7 9 0 6 9 9 19 6 11 -3 29 5 44 19 28 26 42 31 31 12
-4 -7 2 -5 13 5 11 9 25 17 32 17 6 0 14 7 17 15 5 13 9 13 22 3 9 -7 13 -8 9
-2 -6 10 88 60 105 56 5 -1 7 4 5 11 -1 6 6 11 16 11 9 -1 17 4 17 12 0 7 6
11 14 8 7 -3 16 2 19 10 4 10 13 13 23 9 11 -4 15 -2 11 4 -4 6 1 17 10 24 14
12 15 12 9 1 -7 -11 -4 -12 13 -2 12 6 19 15 16 19 -3 5 2 12 11 15 10 4 13 2
9 -7 -4 -6 1 -3 9 7 9 11 16 23 16 28 0 4 5 8 11 8 5 0 7 -6 3 -12 -4 -7 4 -1
19 15 14 15 31 27 37 27 6 0 8 4 5 10 -3 6 0 10 8 10 8 0 22 10 31 23 9 12 14
15 10 7 -4 -8 11 4 33 27 22 23 44 39 48 35 5 -4 5 1 2 10 -3 10 -3 17 1 17
18 -3 35 2 29 7 -4 4 24 37 62 73 38 36 72 76 76 89 3 12 10 20 15 17 10 -6
22 23 15 36 -4 5 0 6 8 4 8 -4 19 6 28 22 8 15 19 33 24 40 6 7 15 19 22 27 6
7 10 16 7 18 -2 3 7 17 20 31 13 14 21 28 18 31 -3 3 1 6 8 6 7 0 10 3 7 7 -4
3 1 12 11 20 9 8 11 12 5 8 -8 -4 -11 -1 -7 9 3 9 11 14 17 13 7 -1 11 8 11
21 -1 15 3 21 12 18 8 -3 11 2 9 14 -2 10 3 21 11 24 8 3 14 14 14 25 0 11 7
26 15 34 8 8 11 17 8 21 -4 3 -1 6 6 6 7 0 9 5 6 10 -3 6 -2 10 4 10 6 0 7 7
4 17 -4 11 -3 14 5 9 7 -4 12 -3 12 3 0 5 -6 12 -12 14 -7 3 -3 6 10 6 19 1
21 4 12 20 -8 16 -6 22 7 29 9 5 17 18 18 28 0 11 5 26 10 34 5 8 10 21 12 29
1 8 7 17 13 21 9 6 9 9 -1 13 -12 5 -11 8 1 19 8 7 16 22 18 33 2 11 4 27 6
37 1 9 9 24 17 34 12 16 12 17 -1 9 -12 -6 -13 -5 -2 6 6 7 12 23 12 36 0 13
5 23 11 23 8 0 7 6 -2 17 -11 13 -11 15 -1 9 10 -6 13 -2 12 15 -1 13 -1 27 0
32 1 4 3 10 5 15 1 4 5 15 9 25 5 9 6 24 2 32 -3 8 -1 15 5 15 6 0 9 7 5 15
-3 8 -1 15 4 15 6 0 10 5 10 11 0 5 -6 7 -12 3 -9 -5 -9 -3 1 9 7 9 11 28 9
42 -3 14 -2 25 1 25 4 0 5 19 3 41 -3 29 -1 40 7 35 6 -4 11 -2 11 3 0 6 -6
11 -12 11 -10 0 -10 2 -1 8 14 9 22 190 9 211 -7 11 -5 13 9 7 13 -5 15 -3 8
6 -14 19 -15 71 -1 62 6 -4 5 3 -4 15 -10 15 -13 32 -9 54 4 17 4 53 1 79 -4
28 -2 52 4 58 7 7 4 10 -9 10 -16 0 -17 2 -6 9 11 7 12 13 3 23 -6 8 -12 46
-13 86 -1 49 -5 69 -13 65 -6 -4 -4 2 4 12 8 10 10 16 4 12 -14 -8 -25 48 -13
60 5 5 3 15 -2 23 -9 12 -10 12 -5 -3 4 -11 2 -16 -5 -12 -5 4 -9 14 -7 23 1
10 -1 23 -6 31 -7 11 -6 12 5 6 11 -7 12 -6 3 6 -6 8 -10 22 -9 32 2 9 -1 15
-5 12 -5 -3 -10 9 -12 27 -2 18 -8 32 -14 31 -6 -1 -9 10 -6 28 3 20 0 29 -9
29 -11 0 -11 2 1 10 11 7 11 10 2 10 -7 0 -10 5 -7 10 3 6 2 10 -4 10 -6 0 -7
7 -4 17 4 11 3 14 -5 9 -11 -6 -18 27 -13 57 1 5 -3 6 -9 2 -10 -6 -14 7 -11
33 1 6 -3 12 -9 12 -5 0 -9 3 -9 8 4 21 -2 32 -13 26 -7 -4 -10 -4 -6 1 4 4 3
14 -3 22 -9 10 -8 13 2 13 10 1 8 4 -3 11 -10 5 -18 19 -18 29 0 11 -5 20 -11
20 -5 0 -8 4 -5 9 3 4 -6 21 -20 37 -13 16 -23 37 -20 47 2 9 0 14 -6 11 -5
-3 -12 3 -15 15 -3 12 -9 21 -14 21 -5 0 -9 9 -9 20 0 12 -7 20 -17 20 -15 0
-16 2 -3 10 13 8 12 10 -2 10 -10 0 -18 5 -18 10 0 26 -20 51 -34 42 -5 -3 -6
0 -2 6 3 6 2 13 -4 17 -6 4 -8 10 -5 15 3 4 -2 11 -11 14 -9 3 -12 11 -8 18 5
8 2 9 -12 4 -10 -4 -15 -4 -12 0 4 3 0 13 -8 21 -8 9 -13 22 -10 30 3 8 2 12
-3 9 -5 -3 -11 1 -15 9 -3 8 -20 24 -38 35 -18 11 -27 20 -20 20 10 0 10 3 -2
15 -8 8 -19 15 -23 15 -13 0 -53 47 -46 54 6 6 -13 10 -30 7 -5 -1 -6 3 -2 9
3 5 1 10 -4 10 -6 0 -11 7 -11 15 0 8 -9 15 -20 15 -21 0 -44 32 -32 45 4 5 1
5 -6 1 -9 -5 -19 0 -28 13 -8 12 -22 21 -30 21 -8 0 -12 4 -9 10 4 6 -1 7 -11
3 -12 -4 -15 -3 -10 5 5 8 -1 12 -16 12 -18 0 -20 2 -8 10 12 8 11 10 -5 10
-11 0 -27 9 -35 20 -10 14 -16 16 -22 7 -5 -8 -8 -6 -8 7 0 11 -3 17 -6 13 -4
-3 -15 4 -26 16 -11 12 -17 17 -14 11 3 -6 -1 -11 -9 -11 -8 0 -12 4 -10 8 3
3 -3 13 -12 20 -14 12 -16 12 -9 -1 4 -9 1 -8 -7 3 -8 9 -21 17 -30 17 -8 0
-17 7 -21 15 -3 8 -12 15 -21 15 -8 0 -15 6 -15 13 0 8 -4 7 -10 -3 -6 -10
-10 -11 -10 -2 0 6 -7 12 -15 12 -8 0 -15 5 -15 12 0 6 -3 8 -7 5 -3 -4 -12 1
-20 11 -8 9 -12 11 -8 5 3 -7 1 -13 -4 -13 -6 0 -11 5 -11 12 0 6 -3 9 -6 5
-4 -3 -13 1 -21 9 -8 8 -19 12 -24 9 -5 -4 -9 -1 -9 5 0 7 -7 10 -15 6 -8 -3
-15 -2 -15 2 0 4 -10 8 -22 9 -11 1 -25 8 -29 15 -5 7 -9 9 -9 3 0 -5 -5 -3
-10 5 -9 13 -10 13 -10 0 -1 -12 -3 -12 -11 2 -5 9 -16 15 -23 12 -7 -3 -20 2
-28 10 -10 9 -19 11 -25 5 -6 -6 -17 -1 -31 11 -12 12 -22 17 -22 13 0 -5 -9
-9 -19 -9 -11 0 -17 4 -15 8 5 8 -5 11 -38 11 -10 0 -18 5 -18 11 0 7 -4 6 -9
-2 -6 -11 -11 -10 -25 3 -10 10 -26 15 -41 13 -13 -3 -26 0 -29 7 -2 7 -19 10
-40 9 -20 -2 -36 1 -36 7 0 6 -5 7 -10 4 -6 -4 -18 -1 -27 7 -14 11 -16 11 -8
-2 7 -12 6 -13 -6 -4 -8 6 -26 11 -41 10 -16 -1 -28 2 -28 6 0 4 -10 5 -22 3
-12 -3 -30 2 -39 11 -11 10 -19 12 -24 5 -4 -7 -12 -8 -23 -2 -9 5 -26 5 -39
0 -14 -5 -25 -4 -29 2 -4 8 -9 7 -15 -2 -7 -12 -9 -12 -9 0 0 8 -6 11 -16 7
-8 -3 -13 -2 -10 3 3 5 -1 12 -10 15 -10 4 -13 2 -8 -6 5 -8 2 -9 -9 -5 -10 4
-17 1 -17 -6 0 -7 -5 -4 -11 6 -8 13 -14 15 -29 7 -10 -6 -21 -6 -24 -2 -3 5
-25 7 -51 6 -25 -1 -43 2 -40 7 4 5 -4 5 -19 -1 -20 -7 -24 -6 -20 5 4 11 0
13 -18 9 -55 -14 -99 -14 -92 -2 4 7 -3 4 -16 -7 -13 -11 -20 -15 -17 -9 4 7
-2 14 -13 17 -11 3 -20 2 -20 -2 0 -7 -50 -7 -57 -1 -8 7 -30 5 -45 -2 -11 -5
-18 -5 -18 1 0 5 -14 6 -35 1 -20 -5 -33 -4 -29 1 8 13 -10 11 -24 -3 -9 -9
-12 -9 -12 0 0 10 -5 10 -20 2 -14 -8 -20 -8 -20 0 0 7 -5 8 -12 3 -18 -11
-62 -11 -70 1 -4 6 -12 5 -22 -3 -9 -8 -16 -10 -16 -6 0 4 -8 1 -17 -6 -10 -8
-14 -9 -10 -2 4 6 3 14 -3 18 -5 3 -10 0 -10 -7 0 -9 -3 -9 -10 2 -6 9 -10 11
-10 3 0 -7 -7 -10 -17 -6 -12 5 -14 3 -8 -8 7 -11 6 -12 -6 -3 -8 6 -23 10
-34 8 -10 -1 -24 1 -30 5 -5 5 -19 6 -30 4 -45 -10 -81 -11 -92 -2 -7 7 -14 6
-19 -2 -5 -8 -3 -9 6 -4 8 5 11 4 6 -3 -3 -6 -24 -10 -46 -8 -24 2 -40 -1 -40
-8 0 -7 -3 -7 -8 -1 -4 6 -20 10 -37 10 -16 0 -33 -4 -37 -10 -5 -6 -8 -5 -8
2 0 9 -7 10 -25 3 -19 -7 -26 -6 -33 6 -8 15 -10 14 -15 -1 -4 -9 -11 -13 -17
-10 -6 4 -7 12 -3 18 4 7 0 6 -10 -2 -9 -7 -17 -10 -17 -5 0 5 -5 2 -10 -6 -5
-8 -10 -10 -10 -4 0 6 -15 10 -32 9 -18 -1 -39 2 -46 8 -9 7 -11 5 -5 -9 6
-16 5 -17 -9 -6 -13 10 -17 10 -21 0 -4 -8 -6 -7 -6 5 -1 9 -6 17 -12 17 -5 0
-8 -4 -5 -8 5 -9 -47 -7 -63 2 -5 4 -13 2 -16 -4 -5 -7 -11 -8 -19 -1 -7 6
-17 6 -26 1 -8 -5 -21 -5 -32 1 -10 5 -18 7 -18 3 0 -3 -8 0 -17 7 -15 12 -16
12 -10 -4 5 -14 3 -16 -11 -10 -22 10 -53 10 -71 -1 -9 -6 -12 -5 -8 1 4 6 -2
13 -13 16 -11 3 -22 1 -25 -3 -3 -5 -15 -6 -28 -4 -42 10 -62 10 -74 1 -9 -6
-13 -5 -13 4 0 12 -2 12 -9 1 -4 -8 -12 -14 -16 -14 -4 0 -12 6 -16 14 -5 7
-9 8 -9 3 0 -6 -9 -11 -20 -11 -11 0 -20 3 -20 6 0 3 -9 6 -20 6 -11 0 -20 -3
-20 -6 0 -10 -44 -6 -52 5 -5 6 -11 5 -17 -4 -6 -9 -11 -10 -15 -2 -5 8 -13 8
-26 1 -12 -7 -20 -6 -22 0 -2 7 -8 6 -16 -2z m1278 -8 c0 -5 -5 -10 -11 -10
-5 0 -7 5 -4 10 3 6 8 10 11 10 2 0 4 -4 4 -10z m720 0 c0 -5 -5 -10 -11 -10
-5 0 -7 5 -4 10 3 6 8 10 11 10 2 0 4 -4 4 -10z m-770 -2594 c0 -2 -8 -10 -17
-17 -16 -13 -17 -12 -4 4 13 16 21 21 21 13z m2600 -1159 c0 -2 -12 -14 -27
-28 l-28 -24 24 28 c23 25 31 32 31 24z m-1595 -797 c3 -5 1 -10 -4 -10 -6 0
-11 5 -11 10 0 6 2 10 4 10 3 0 8 -4 11 -10z"/>
<path d="M3250 4900 c0 -5 5 -10 11 -10 5 0 7 5 4 10 -3 6 -8 10 -11 10 -2 0
-4 -4 -4 -10z"/>
<path d="M5225 3410 c-3 -6 1 -7 9 -4 18 7 21 14 7 14 -6 0 -13 -4 -16 -10z"/>
<path d="M3932 3009 c2 -7 10 -15 17 -17 8 -3 12 1 9 9 -2 7 -10 15 -17 17 -8
3 -12 -1 -9 -9z"/>
</g>
</svg>
